<svg width="434" height="136" version="1.1" xmlns="http://www.w3.org/2000/svg" desc="Created with imagetracer.js version 1.2.6" ><path fill="rgb(15,11,11)" stroke="rgb(15,11,11)" stroke-width="1" opacity="1" d="M 16 0 L 18 0.5 L 18 8.5 L 18.5 9 L 46 9 L 46 0.5 L 48 0 L 48 8.5 L 48.5 9 L 76 9 L 76 0.5 L 78 0 L 78 9 L 105 9 L 105 0.5 L 107 0 L 107 8.5 L 107.5 9 L 135 9 L 135 0.5 L 137 0 L 137 8.5 L 137.5 9 L 165 9 L 165 0.5 L 167 0 L 167 8.5 L 167.5 9 L 195 9 L 195 0.5 L 197 0 L 197 8.5 L 197.5 9 L 225 9 L 225 0.5 L 227 0 L 227 8.5 L 227.5 9 L 255 9 L 255 0.5 L 257 0 L 257 8.5 L 257.5 9 L 285 9 L 285 0.5 L 287 0 L 287 8.5 L 287.5 9 L 315 9 L 315 0.5 L 317 0 L 317 9 L 344 9 L 344 0.5 L 346 0 L 346 8.5 L 346.5 9 L 374 9 L 374 0.5 L 376 0 L 376 8.5 L 376.5 9 L 404 9 L 404 0.5 L 406 0 L 406 9 L 433.5 9 L 434 11 L 407.5 11 L 406 12.5 L 406 20.5 L 404 21 L 404 11 L 377.5 11 L 376 12.5 L 376 21 L 374 20.5 L 374 11 L 347.5 11 L 346 12.5 L 346 21 L 344 20.5 L 344 11 L 317 11 L 317 39 L 344 39 L 344 29.5 L 346 29 L 346 39 L 374 39 L 374 29.5 L 376 29 L 376 39 L 404 39 L 404 29.5 L 406 29 L 406 39 L 433.5 39 L 434 41 L 406 41 L 406 69 L 433.5 69 L 434 71 L 406 71 L 406 99 L 433.5 99 L 434 101 L 406.5 101 Q 407.1 103.8 404 103 L 403.5 101 L 376 101 Q 377 104 374 103 L 373.5 101 L 346 101 Q 347 104 344 103 L 343.5 101 L 317 101 L 317 129 L 344 129 L 344 111.5 L 346 111 L 346 127.5 L 347.5 129 L 374 129 L 374 111.5 L 376 111 L 376 127.5 L 377.5 129 L 404 129 L 404 111.5 L 406 111 L 406 127.5 L 407.5 129 L 433.5 129 L 434 131 L 406.5 131 L 406 136 L 404 136 L 403.5 131 L 376 131 L 376 136 L 374 136 L 373.5 131 L 346 131 L 346 136 L 344 136 L 343.5 131 L 317 131 L 317 136 L 315 136 L 314.5 131 L 287 131 L 287 136 L 285 136 L 284.5 131 L 257 131 L 257 136 L 255 136 L 254.5 131 L 227 131 L 227 136 L 225 136 L 224.5 131 L 197 131 L 197 136 L 195 136 L 194.5 131 L 167 131 L 167 136 L 165 136 L 164.5 131 L 137 131 L 137 136 L 135 136 L 134.5 131 L 107 131 L 107 136 L 105 136 L 104.5 131 L 78 131 L 78 136 L 76 136 L 75.5 131 L 48 131 L 48 136 L 46 136 L 45.5 131 L 18 131 L 18 136 L 16 136 L 16 131 L 0.5 131 L 0 129 L 14.5 129 L 16 127.5 L 16 111.5 L 18 111 L 18 129 L 44.5 129 L 46 127.5 L 46 111 L 48 111.5 L 48 129 L 74.5 129 L 76 127.5 L 76 101 L 48.5 101 Q 49.1 103.8 46 103 L 45.5 101 L 18 101 Q 19 104 16 103 L 15.5 101 L 0.5 101 L 0 99 L 16 99 L 16 71 L 0.5 71 L 0 69 L 16 69 L 16 41 L 0.5 41 L 0 39 L 16 39 L 16 29.5 L 18 29 L 18 39 L 46 39 L 46 29.5 L 48 29 L 48 39 L 76 39 L 76 12.5 L 74.5 11 L 48 11 L 48 20.5 L 46 21 L 46 12.5 L 44.5 11 L 18 11 L 18 20.5 L 16 21 L 16 12.5 L 14.5 11 L 0.5 11 L 0 9 L 16 9 L 16 0 Z M 78 11 L 78 21 L 77 22 L 78 39 L 105 39 L 105 29 L 107 30 L 107 39 L 135 39 L 135 29 L 137 30 L 137 39 L 165 39 L 165 29 L 167 30 L 167 39 L 195 39 L 195 29 L 197 30 L 197 39 L 225 39 L 225 29 L 227 30 L 227 39 L 228 39 L 255 39 L 256 26 L 257 29 L 257 39 L 285 39 L 285 29 L 287 30 L 287 39 L 288 39 L 315 39 L 315 27 L 316 26 Q 314 21 315 13 L 314 11 L 287 11 L 287 21 L 285 21 L 285 13 L 284 11 L 257 11 L 257 21 L 256 22 L 255 11 L 227 11 L 227 21 L 225 21 L 225 11 L 197 11 L 197 21 L 195 21 L 195 11 L 167 11 L 167 21 L 165 21 L 165 11 L 139 11 L 137 13 L 137 21 L 135 21 L 135 11 L 109 11 L 107 13 L 107 21 L 105 21 L 105 11 L 78 11 Z M 18 41 L 18 69 L 46 69 L 46 41 L 18 41 Z M 48 41 L 48 69 L 63 69 L 63 71 L 48 71 L 48 99 L 75 99 L 76 98 L 77 77 L 78 82 L 78 99 L 105 99 L 105 72 L 102 71 Q 101 68 105 69 L 105 41 L 78 41 L 78 51 L 76 43 L 75 41 L 48 41 Z M 109 41 L 106 46 L 106 85 L 107 86 L 107 98 L 109 99 L 135 99 L 135 86 L 137 87 L 137 99 L 165 99 L 165 84 L 166 83 L 165 81 L 165 71 L 159 71 L 159 69 L 165 69 L 165 69 L 165 41 L 138 41 L 137 45 L 135 45 L 135 41 L 109 41 Z M 167 41 L 167 99 L 195 99 L 195 85 L 197 83 L 197 99 L 225 99 L 225 84 L 227 85 L 227 99 L 255 99 L 255 85 L 257 86 L 257 99 L 285 99 L 285 77 L 287 78 L 287 99 L 314 99 L 315 98 L 315 72 L 312 71 L 312 69 L 317 70 L 317 99 L 344 99 L 344 85 L 346 86 L 346 98 L 348 99 L 374 99 L 374 72 L 374 71 L 365 71 L 366 69 L 374 69 L 374 41 L 348 41 L 346 45 Q 342 46 344 41 L 318 41 L 317 45 L 315 45 L 314 41 L 288 41 L 287 45 Q 283 46 285 41 L 258 41 L 257 45 L 255 45 L 255 41 L 227 41 L 227 46 Q 224 45 225 41 L 198 41 L 197 45 L 195 45 L 195 41 L 167 41 Z M 376 41 L 376 69 L 404 69 L 404 41 L 376 41 Z M 18 71 L 18 99 L 45 99 L 46 98 L 46 71 L 18 71 Z M 376 71 L 376 98 L 378 99 L 404 99 L 404 71 L 376 71 Z M 78 101 L 77 105 L 78 129 L 105 129 L 105 112 L 107 111 L 107 128 L 109 129 L 135 129 L 135 112 L 137 111 L 137 128 L 139 129 L 165 129 L 165 111 L 167 112 L 167 129 L 195 129 L 195 111 L 197 112 L 197 129 L 225 129 L 225 111 L 227 112 L 227 129 L 255 129 L 255 111 L 257 112 L 257 129 L 284 129 L 285 128 L 285 111 L 287 112 L 287 129 L 314 129 L 315 128 L 315 110 L 316 109 L 315 101 L 288 101 L 287 103 Q 284 104 285 101 L 257 101 L 256 106 L 255 101 L 228 101 L 227 103 Q 224 104 225 101 L 198 101 L 197 103 Q 194 104 195 101 L 168 101 L 167 103 Q 164 104 165 101 L 138 101 L 137 103 Q 134 104 135 101 L 108 101 L 107 103 Q 104 104 105 101 L 78 101 Z " /><path fill="rgb(15,11,11)" stroke="rgb(15,11,11)" stroke-width="1" opacity="1" d="M 315 52 L 317 52.5 L 317 63 L 315 62.5 L 315 52 Z " /><path fill="rgb(15,11,11)" stroke="rgb(15,11,11)" stroke-width="1" opacity="1" d="M 345.5 52 L 346 67.5 L 347.5 69 L 355.5 69 L 356 71 L 346 71 L 346 77.5 L 345 77.5 L 345.5 52 Z " /><path fill="rgb(15,11,11)" stroke="rgb(15,11,11)" stroke-width="1" opacity="1" d="M 285.5 63 L 287 67.5 L 285 66.5 L 285.5 63 Z " /><path fill="rgb(15,11,11)" stroke="rgb(15,11,11)" stroke-width="1" opacity="1" d="M 72 69 Q 75 68 74 71 Q 71 72 72 69 Z " /><path fill="rgb(15,11,11)" stroke="rgb(15,11,11)" stroke-width="1" opacity="1" d="M 91.5 69 Q 94.1 68.3 93 71 L 90 70.5 L 91.5 69 Z " /><path fill="rgb(15,11,11)" stroke="rgb(15,11,11)" stroke-width="1" opacity="1" d="M 115 69 L 133.5 69 L 134 71 L 115.5 71 L 115 69 Z " /><path fill="rgb(15,11,11)" stroke="rgb(15,11,11)" stroke-width="1" opacity="1" d="M 143 69 L 148 69 L 148 71 L 143 71 L 143 69 Z " /><path fill="rgb(15,11,11)" stroke="rgb(15,11,11)" stroke-width="1" opacity="1" d="M 176 69 L 180 70.5 L 176 71 L 176 69 Z " /><path fill="rgb(15,11,11)" stroke="rgb(15,11,11)" stroke-width="1" opacity="1" d="M 198 69 Q 203.2 67.3 202 71 Q 196.8 72.7 198 69 Z " /><path fill="rgb(15,11,11)" stroke="rgb(15,11,11)" stroke-width="1" opacity="1" d="M 211 69 L 220.5 69 L 221 71 L 211.5 71 L 211 69 Z " /><path fill="rgb(15,11,11)" stroke="rgb(15,11,11)" stroke-width="1" opacity="1" d="M 231 69 Q 236.2 67.3 235 71 Q 229.8 72.7 231 69 Z " /><path fill="rgb(15,11,11)" stroke="rgb(15,11,11)" stroke-width="1" opacity="1" d="M 244 69 L 254.5 69 L 255 71 L 244.5 71 L 244 69 Z " /><path fill="rgb(15,11,11)" stroke="rgb(15,11,11)" stroke-width="1" opacity="1" d="M 265 69 L 269 69.5 L 265 71 L 265 69 Z " /><path fill="rgb(15,11,11)" stroke="rgb(15,11,11)" stroke-width="1" opacity="1" d="M 298 69 Q 303.2 67.3 302 71 Q 296.8 72.7 298 69 Z " /><path fill="rgb(15,11,11)" stroke="rgb(15,11,11)" stroke-width="1" opacity="1" d="M 327.5 69 L 335.5 69 L 336 71 L 328.5 71 L 327.5 69 Z " /><path fill="rgb(23,51,31)" stroke="rgb(23,51,31)" stroke-width="1" opacity="1" d="M 17.5 21 L 71 21.5 L 17.5 22 L 17.5 21 Z " /><path fill="rgb(23,51,31)" stroke="rgb(23,51,31)" stroke-width="1" opacity="1" d="M 79.5 21 L 89 21.5 L 79.5 22 L 78 23.5 L 77.5 26 L 77 23.5 L 79.5 21 Z " /><path fill="rgb(23,51,31)" stroke="rgb(23,51,31)" stroke-width="1" opacity="1" d="M 97.5 21 L 152 21.5 L 97.5 22 L 97.5 21 Z " /><path fill="rgb(23,51,31)" stroke="rgb(23,51,31)" stroke-width="1" opacity="1" d="M 160.5 21 L 169.5 21 L 171 22.5 L 169.5 22 L 160.5 22 L 160.5 21 Z " /><path fill="rgb(23,51,31)" stroke="rgb(23,51,31)" stroke-width="1" opacity="1" d="M 178.5 21 L 232.5 21 L 234 22.5 L 232.5 22 L 178.5 22 L 178.5 21 Z " /><path fill="rgb(23,51,31)" stroke="rgb(23,51,31)" stroke-width="1" opacity="1" d="M 241.5 21 L 250 21.5 L 241.5 22 L 241.5 21 Z " /><path fill="rgb(23,51,31)" stroke="rgb(23,51,31)" stroke-width="1" opacity="1" d="M 258.5 21 L 313 21.5 L 258.5 22 L 258.5 21 Z " /><path fill="rgb(23,51,31)" stroke="rgb(23,51,31)" stroke-width="1" opacity="1" d="M 321.5 21 L 331 21.5 L 321.5 22 L 321.5 21 Z " /><path fill="rgb(23,51,31)" stroke="rgb(23,51,31)" stroke-width="1" opacity="1" d="M 339.5 21 L 394 21.5 L 339.5 22 L 339.5 21 Z " /><path fill="rgb(23,51,31)" stroke="rgb(23,51,31)" stroke-width="1" opacity="1" d="M 402.5 21 L 411 21.5 L 402.5 22 L 402.5 21 Z " /><path fill="rgb(23,51,31)" stroke="rgb(23,51,31)" stroke-width="1" opacity="1" d="M 153.5 23 L 154 25.5 L 153 25.5 L 153.5 23 Z " /><path fill="rgb(23,51,31)" stroke="rgb(23,51,31)" stroke-width="1" opacity="1" d="M 256.5 23 L 257 25.5 L 256 25.5 L 256.5 23 Z " /><path fill="rgb(23,51,31)" stroke="rgb(23,51,31)" stroke-width="1" opacity="1" d="M 319.5 23 L 320 25.5 L 319 25.5 L 319.5 23 Z " /><path fill="rgb(23,51,31)" stroke="rgb(23,51,31)" stroke-width="1" opacity="1" d="M 395.5 23 L 396 25.5 L 395 25.5 L 395.5 23 Z " /><path fill="rgb(23,51,31)" stroke="rgb(23,51,31)" stroke-width="1" opacity="1" d="M 15.5 26 L 18 27.5 L 16.5 28 L 15.5 26 Z " /><path fill="rgb(23,51,31)" stroke="rgb(23,51,31)" stroke-width="1" opacity="1" d="M 170.5 26 L 169.5 28 L 165 27.5 L 170.5 26 Z " /><path fill="rgb(23,51,31)" stroke="rgb(23,51,31)" stroke-width="1" opacity="1" d="M 176.5 26 L 180 27.5 L 177.5 28 L 176.5 26 Z " /><path fill="rgb(23,51,31)" stroke="rgb(23,51,31)" stroke-width="1" opacity="1" d="M 233.5 26 L 232.5 28 L 230 27.5 L 233.5 26 Z " /><path fill="rgb(23,51,31)" stroke="rgb(23,51,31)" stroke-width="1" opacity="1" d="M 239.5 26 L 242 27.5 L 240.5 28 L 239.5 26 Z " /><path fill="rgb(23,51,31)" stroke="rgb(23,51,31)" stroke-width="1" opacity="1" d="M 400.5 26 L 407 27.5 L 401.5 28 L 400.5 26 Z " /><path fill="rgb(23,51,31)" stroke="rgb(23,51,31)" stroke-width="1" opacity="1" d="M 412.5 26 L 411.5 28 L 410 27.5 L 412.5 26 Z " /><path fill="rgb(23,51,31)" stroke="rgb(23,51,31)" stroke-width="1" opacity="1" d="M 45.5 27 L 48 27.5 L 45.5 28 L 45.5 27 Z " /><path fill="rgb(23,51,31)" stroke="rgb(23,51,31)" stroke-width="1" opacity="1" d="M 105.5 27 L 108 27.5 L 105.5 28 L 105.5 27 Z " /><path fill="rgb(23,51,31)" stroke="rgb(23,51,31)" stroke-width="1" opacity="1" d="M 135.5 27 L 138 27.5 L 135.5 28 L 135.5 27 Z " /><path fill="rgb(23,51,31)" stroke="rgb(23,51,31)" stroke-width="1" opacity="1" d="M 284.5 27 L 287 27.5 L 284.5 28 L 284.5 27 Z " /><path fill="rgb(23,51,31)" stroke="rgb(23,51,31)" stroke-width="1" opacity="1" d="M 344.5 27 L 347 27.5 L 344.5 28 L 344.5 27 Z " /><path fill="rgb(23,51,31)" stroke="rgb(23,51,31)" stroke-width="1" opacity="1" d="M 374.5 27 L 377 27.5 L 374.5 28 L 374.5 27 Z " /><path fill="rgb(23,51,31)" stroke="rgb(23,51,31)" stroke-width="1" opacity="1" d="M 63.5 47 L 64 82.5 L 63 82.5 L 63.5 47 Z " /><path fill="rgb(23,51,31)" stroke="rgb(23,51,31)" stroke-width="1" opacity="1" d="M 243.5 52 L 244 76.5 L 243 76.5 L 243.5 52 Z " /><path fill="rgb(23,51,31)" stroke="rgb(23,51,31)" stroke-width="1" opacity="1" d="M 221.5 53 L 222 58.5 L 221 58.5 L 221.5 53 Z " /><path fill="rgb(23,51,31)" stroke="rgb(23,51,31)" stroke-width="1" opacity="1" d="M 356.5 53 L 357 76.5 L 356 76.5 L 356.5 53 Z " /><path fill="rgb(23,51,31)" stroke="rgb(23,51,31)" stroke-width="1" opacity="1" d="M 71.5 61 Q 74.3 62.2 72 63.5 L 71.5 82 L 71.5 61 Z " /><path fill="rgb(23,51,31)" stroke="rgb(23,51,31)" stroke-width="1" opacity="1" d="M 81.5 67 L 82.5 69 L 81.5 67 Z " /><path fill="rgb(23,51,31)" stroke="rgb(23,51,31)" stroke-width="1" opacity="1" d="M 300.5 80 L 301 82.5 L 300 82.5 L 300.5 80 Z " /><path fill="rgb(23,51,31)" stroke="rgb(23,51,31)" stroke-width="1" opacity="1" d="M 17.5 104 L 71 104.5 L 17.5 105 L 17.5 104 Z " /><path fill="rgb(23,51,31)" stroke="rgb(23,51,31)" stroke-width="1" opacity="1" d="M 79.5 104 L 89 104.5 L 79.5 105 L 78 106.5 L 77.5 109 L 77 106.5 L 79.5 104 Z " /><path fill="rgb(23,51,31)" stroke="rgb(23,51,31)" stroke-width="1" opacity="1" d="M 97.5 104 L 152 104.5 L 97.5 105 L 97.5 104 Z " /><path fill="rgb(23,51,31)" stroke="rgb(23,51,31)" stroke-width="1" opacity="1" d="M 160.5 104 L 169 104.5 L 160.5 105 L 160.5 104 Z " /><path fill="rgb(23,51,31)" stroke="rgb(23,51,31)" stroke-width="1" opacity="1" d="M 178.5 104 L 232.5 104 L 234 105.5 L 232.5 105 L 178.5 105 L 178.5 104 Z " /><path fill="rgb(23,51,31)" stroke="rgb(23,51,31)" stroke-width="1" opacity="1" d="M 241.5 104 L 250 104.5 L 241.5 105 L 241.5 104 Z " /><path fill="rgb(23,51,31)" stroke="rgb(23,51,31)" stroke-width="1" opacity="1" d="M 258.5 104 L 313 104.5 L 258.5 105 L 257 106.5 L 256.5 109 L 256 106.5 L 258.5 104 Z " /><path fill="rgb(23,51,31)" stroke="rgb(23,51,31)" stroke-width="1" opacity="1" d="M 321.5 104 L 331 104.5 L 321.5 105 L 320 106.5 L 319.5 109 L 319 106.5 L 321.5 104 Z " /><path fill="rgb(23,51,31)" stroke="rgb(23,51,31)" stroke-width="1" opacity="1" d="M 339.5 104 L 393.5 104 L 396 106.5 L 395.5 109 L 393.5 105 L 339.5 105 L 339.5 104 Z " /><path fill="rgb(23,51,31)" stroke="rgb(23,51,31)" stroke-width="1" opacity="1" d="M 402.5 104 L 411 104.5 L 402.5 105 L 402.5 104 Z " /><path fill="rgb(23,51,31)" stroke="rgb(23,51,31)" stroke-width="1" opacity="1" d="M 73.5 107 L 74 108.5 L 71 110.5 L 73.5 107 Z " /><path fill="rgb(23,51,31)" stroke="rgb(23,51,31)" stroke-width="1" opacity="1" d="M 332.5 108 L 333 109.5 L 331 110.5 L 332.5 108 Z " /><path fill="rgb(23,51,31)" stroke="rgb(23,51,31)" stroke-width="1" opacity="1" d="M 90.5 109 L 89.5 111 L 90.5 109 Z " /><path fill="rgb(23,51,31)" stroke="rgb(23,51,31)" stroke-width="1" opacity="1" d="M 95.5 109 L 96.5 111 L 95.5 109 Z " /><path fill="rgb(23,51,31)" stroke="rgb(23,51,31)" stroke-width="1" opacity="1" d="M 158.5 109 L 159.5 111 L 158.5 109 Z " /><path fill="rgb(23,51,31)" stroke="rgb(23,51,31)" stroke-width="1" opacity="1" d="M 176.5 109 L 177.5 111 L 176.5 109 Z " /><path fill="rgb(23,51,31)" stroke="rgb(23,51,31)" stroke-width="1" opacity="1" d="M 251.5 109 L 250.5 111 L 251.5 109 Z " /><path fill="rgb(23,51,31)" stroke="rgb(23,51,31)" stroke-width="1" opacity="1" d="M 314.5 109 L 313.5 111 L 314.5 109 Z " /><path fill="rgb(23,51,31)" stroke="rgb(23,51,31)" stroke-width="1" opacity="1" d="M 337.5 109 L 338.5 111 L 337.5 109 Z " /><path fill="rgb(23,51,31)" stroke="rgb(23,51,31)" stroke-width="1" opacity="1" d="M 412.5 109 L 411.5 111 L 412.5 109 Z " /><path fill="rgb(21,78,39)" stroke="rgb(21,78,39)" stroke-width="1" opacity="1" d="M 71.5 22 L 73 25.5 L 71 26.5 L 72 23.5 L 71.5 22 Z " /><path fill="rgb(21,78,39)" stroke="rgb(21,78,39)" stroke-width="1" opacity="1" d="M 89.5 22 L 91 25.5 L 89 26.5 L 90 23.5 L 89.5 22 Z " /><path fill="rgb(21,78,39)" stroke="rgb(21,78,39)" stroke-width="1" opacity="1" d="M 159.5 22 L 159 23.5 L 160 26.5 L 158 25.5 L 159.5 22 Z " /><path fill="rgb(21,78,39)" stroke="rgb(21,78,39)" stroke-width="1" opacity="1" d="M 177.5 22 L 177 23.5 L 176.5 26 L 176 23.5 L 177.5 22 Z " /><path fill="rgb(21,78,39)" stroke="rgb(21,78,39)" stroke-width="1" opacity="1" d="M 250.5 22 L 252 25.5 L 250 26.5 L 251 23.5 L 250.5 22 Z " /><path fill="rgb(21,78,39)" stroke="rgb(21,78,39)" stroke-width="1" opacity="1" d="M 313.5 22 L 315 24.5 L 314 24.5 L 313.5 22 Z " /><path fill="rgb(21,78,39)" stroke="rgb(21,78,39)" stroke-width="1" opacity="1" d="M 338.5 22 L 338 23.5 L 339 26.5 L 337 25.5 L 338.5 22 Z " /><path fill="rgb(21,78,39)" stroke="rgb(21,78,39)" stroke-width="1" opacity="1" d="M 401.5 22 L 401 23.5 L 402 26.5 L 400 25.5 L 401.5 22 Z " /><path fill="rgb(21,78,39)" stroke="rgb(21,78,39)" stroke-width="1" opacity="1" d="M 411.5 22 L 413 25.5 L 411 26.5 L 412 23.5 L 411.5 22 Z " /><path fill="rgb(21,78,39)" stroke="rgb(21,78,39)" stroke-width="1" opacity="1" d="M 18.5 27 L 45 27.5 L 18.5 28 L 18.5 27 Z " /><path fill="rgb(21,78,39)" stroke="rgb(21,78,39)" stroke-width="1" opacity="1" d="M 48.5 27 L 69 27.5 L 48.5 28 L 48.5 27 Z " /><path fill="rgb(21,78,39)" stroke="rgb(21,78,39)" stroke-width="1" opacity="1" d="M 81.5 27 L 87 27.5 L 81.5 28 L 81.5 27 Z " /><path fill="rgb(21,78,39)" stroke="rgb(21,78,39)" stroke-width="1" opacity="1" d="M 99.5 27 L 105 27.5 L 99.5 28 L 99.5 27 Z " /><path fill="rgb(21,78,39)" stroke="rgb(21,78,39)" stroke-width="1" opacity="1" d="M 108.5 27 L 135 27.5 L 108.5 28 L 108.5 27 Z " /><path fill="rgb(21,78,39)" stroke="rgb(21,78,39)" stroke-width="1" opacity="1" d="M 138.5 27 L 150 27.5 L 138.5 28 L 138.5 27 Z " /><path fill="rgb(21,78,39)" stroke="rgb(21,78,39)" stroke-width="1" opacity="1" d="M 162.5 27 L 165 27.5 L 162.5 28 L 162.5 27 Z " /><path fill="rgb(21,78,39)" stroke="rgb(21,78,39)" stroke-width="1" opacity="1" d="M 180.5 27 L 195 27.5 L 180.5 28 L 180.5 27 Z " /><path fill="rgb(21,78,39)" stroke="rgb(21,78,39)" stroke-width="1" opacity="1" d="M 197.5 27 L 225 27.5 L 197.5 28 L 197.5 27 Z " /><path fill="rgb(21,78,39)" stroke="rgb(21,78,39)" stroke-width="1" opacity="1" d="M 227.5 27 L 230 27.5 L 227.5 28 L 227.5 27 Z " /><path fill="rgb(21,78,39)" stroke="rgb(21,78,39)" stroke-width="1" opacity="1" d="M 242.5 27 L 248 27.5 L 242.5 28 L 242.5 27 Z " /><path fill="rgb(21,78,39)" stroke="rgb(21,78,39)" stroke-width="1" opacity="1" d="M 260.5 27 L 284 27.5 L 260.5 28 L 260.5 27 Z " /><path fill="rgb(21,78,39)" stroke="rgb(21,78,39)" stroke-width="1" opacity="1" d="M 287.5 27 L 311 27.5 L 287.5 28 L 287.5 27 Z " /><path fill="rgb(21,78,39)" stroke="rgb(21,78,39)" stroke-width="1" opacity="1" d="M 323.5 27 L 329 27.5 L 323.5 28 L 323.5 27 Z " /><path fill="rgb(21,78,39)" stroke="rgb(21,78,39)" stroke-width="1" opacity="1" d="M 341.5 27 L 344 27.5 L 341.5 28 L 341.5 27 Z " /><path fill="rgb(21,78,39)" stroke="rgb(21,78,39)" stroke-width="1" opacity="1" d="M 347.5 27 L 374 27.5 L 347.5 28 L 347.5 27 Z " /><path fill="rgb(21,78,39)" stroke="rgb(21,78,39)" stroke-width="1" opacity="1" d="M 377.5 27 L 392 27.5 L 377.5 28 L 377.5 27 Z " /><path fill="rgb(21,78,39)" stroke="rgb(21,78,39)" stroke-width="1" opacity="1" d="M 407.5 27 L 410 27.5 L 407.5 28 L 407.5 27 Z " /><path fill="rgb(21,78,39)" stroke="rgb(21,78,39)" stroke-width="1" opacity="1" d="M 16.5 105 L 15.5 107 L 16.5 105 Z " /><path fill="rgb(21,78,39)" stroke="rgb(21,78,39)" stroke-width="1" opacity="1" d="M 71.5 105 L 73 108.5 L 72 108.5 L 71.5 105 Z " /><path fill="rgb(21,78,39)" stroke="rgb(21,78,39)" stroke-width="1" opacity="1" d="M 79.5 105 L 78.5 107 L 79.5 105 Z " /><path fill="rgb(21,78,39)" stroke="rgb(21,78,39)" stroke-width="1" opacity="1" d="M 159.5 105 L 159 106.5 L 158.5 109 L 158 106.5 L 159.5 105 Z " /><path fill="rgb(21,78,39)" stroke="rgb(21,78,39)" stroke-width="1" opacity="1" d="M 169.5 105 L 170.5 107 L 169.5 105 Z " /><path fill="rgb(21,78,39)" stroke="rgb(21,78,39)" stroke-width="1" opacity="1" d="M 177.5 105 L 177 106.5 L 176.5 109 L 176 106.5 L 177.5 105 Z " /><path fill="rgb(21,78,39)" stroke="rgb(21,78,39)" stroke-width="1" opacity="1" d="M 232.5 105 L 233.5 107 L 232.5 105 Z " /><path fill="rgb(21,78,39)" stroke="rgb(21,78,39)" stroke-width="1" opacity="1" d="M 240.5 105 L 239.5 107 L 240.5 105 Z " /><path fill="rgb(21,78,39)" stroke="rgb(21,78,39)" stroke-width="1" opacity="1" d="M 250.5 105 L 252 108.5 L 251 108.5 L 250.5 105 Z " /><path fill="rgb(21,78,39)" stroke="rgb(21,78,39)" stroke-width="1" opacity="1" d="M 338.5 105 L 338 106.5 L 337.5 109 L 337 106.5 L 338.5 105 Z " /><path fill="rgb(21,78,39)" stroke="rgb(21,78,39)" stroke-width="1" opacity="1" d="M 393.5 105 L 394.5 107 L 393.5 105 Z " /><path fill="rgb(21,78,39)" stroke="rgb(21,78,39)" stroke-width="1" opacity="1" d="M 401.5 105 L 401 106.5 L 400.5 110 L 400 106.5 L 401.5 105 Z " /><path fill="rgb(21,78,39)" stroke="rgb(21,78,39)" stroke-width="1" opacity="1" d="M 411.5 105 L 413 108.5 L 412 108.5 L 411.5 105 Z " /><path fill="rgb(21,78,39)" stroke="rgb(21,78,39)" stroke-width="1" opacity="1" d="M 90.5 107 L 91 108.5 L 88.5 111 L 79.5 111 L 78.5 109 L 79.5 110 L 88.5 110 L 90.5 107 Z " /><path fill="rgb(21,78,39)" stroke="rgb(21,78,39)" stroke-width="1" opacity="1" d="M 95.5 107 L 97.5 110 L 151.5 110 L 152.5 109 L 151.5 111 L 97.5 111 L 95 108.5 L 95.5 107 Z " /><path fill="rgb(21,78,39)" stroke="rgb(21,78,39)" stroke-width="1" opacity="1" d="M 314.5 107 L 315 108.5 L 312.5 111 L 258.5 111 L 257.5 109 L 258.5 110 L 312.5 110 L 314.5 107 Z " /><path fill="rgb(21,78,39)" stroke="rgb(21,78,39)" stroke-width="1" opacity="1" d="M 233.5 108 L 234 109.5 L 232.5 111 L 178.5 111 L 178.5 110 L 232.5 110 L 233.5 108 Z " /><path fill="rgb(21,78,39)" stroke="rgb(21,78,39)" stroke-width="1" opacity="1" d="M 239.5 108 L 240 110 L 250 110.5 L 240.5 111 L 239.5 108 Z " /><path fill="rgb(21,78,39)" stroke="rgb(21,78,39)" stroke-width="1" opacity="1" d="M 320.5 109 L 321.5 110 L 330.5 110 L 332 109.5 L 330.5 111 L 321.5 111 L 320.5 109 Z " /><path fill="rgb(21,78,39)" stroke="rgb(21,78,39)" stroke-width="1" opacity="1" d="M 394.5 109 L 393.5 111 L 339 110.5 L 393.5 110 L 394.5 109 Z " /><path fill="rgb(21,78,39)" stroke="rgb(21,78,39)" stroke-width="1" opacity="1" d="M 17.5 110 L 71 110.5 L 17.5 111 L 17.5 110 Z " /><path fill="rgb(21,78,39)" stroke="rgb(21,78,39)" stroke-width="1" opacity="1" d="M 160.5 110 L 169 110.5 L 160.5 111 L 160.5 110 Z " /><path fill="rgb(21,78,39)" stroke="rgb(21,78,39)" stroke-width="1" opacity="1" d="M 402.5 110 L 411 110.5 L 402.5 111 L 402.5 110 Z " /><path fill="rgb(17,13,13)" stroke="rgb(17,13,13)" stroke-width="1" opacity="1" d="M 0 0 L 16 0 L 16 9 L 0 9 L 0 0 Z " /><path fill="rgb(17,13,13)" stroke="rgb(17,13,13)" stroke-width="1" opacity="1" d="M 18 0 L 45.5 0 L 46 0.5 L 46 9 L 18.5 9 L 18 8.5 L 18 0 Z " /><path fill="rgb(17,13,13)" stroke="rgb(17,13,13)" stroke-width="1" opacity="1" d="M 48 0 L 75.5 0 L 76 0.5 L 76 9 L 48.5 9 L 48 8.5 L 48 0 Z " /><path fill="rgb(17,13,13)" stroke="rgb(17,13,13)" stroke-width="1" opacity="1" d="M 78 0 L 105 0 L 105 9 L 78 9 L 78 0 Z " /><path fill="rgb(17,13,13)" stroke="rgb(17,13,13)" stroke-width="1" opacity="1" d="M 107 0 L 134.5 0 L 135 0.5 L 135 9 L 107.5 9 L 107 8.5 L 107 0 Z " /><path fill="rgb(17,13,13)" stroke="rgb(17,13,13)" stroke-width="1" opacity="1" d="M 137 0 L 164.5 0 L 165 0.5 L 165 9 L 137.5 9 L 137 8.5 L 137 0 Z " /><path fill="rgb(17,13,13)" stroke="rgb(17,13,13)" stroke-width="1" opacity="1" d="M 167 0 L 194.5 0 L 195 0.5 L 195 9 L 167.5 9 L 167 8.5 L 167 0 Z " /><path fill="rgb(17,13,13)" stroke="rgb(17,13,13)" stroke-width="1" opacity="1" d="M 197 0 L 224.5 0 L 225 0.5 L 225 9 L 197.5 9 L 197 8.5 L 197 0 Z " /><path fill="rgb(17,13,13)" stroke="rgb(17,13,13)" stroke-width="1" opacity="1" d="M 227 0 L 254.5 0 L 255 0.5 L 255 9 L 227.5 9 L 227 8.5 L 227 0 Z " /><path fill="rgb(17,13,13)" stroke="rgb(17,13,13)" stroke-width="1" opacity="1" d="M 257 0 L 284.5 0 L 285 0.5 L 285 9 L 257.5 9 L 257 8.5 L 257 0 Z " /><path fill="rgb(17,13,13)" stroke="rgb(17,13,13)" stroke-width="1" opacity="1" d="M 287 0 L 314.5 0 L 315 0.5 L 315 9 L 287.5 9 L 287 8.5 L 287 0 Z " /><path fill="rgb(17,13,13)" stroke="rgb(17,13,13)" stroke-width="1" opacity="1" d="M 317 0 L 344 0 L 344 9 L 317 9 L 317 0 Z " /><path fill="rgb(17,13,13)" stroke="rgb(17,13,13)" stroke-width="1" opacity="1" d="M 346 0 L 373.5 0 L 374 0.5 L 374 9 L 346.5 9 L 346 8.5 L 346 0 Z " /><path fill="rgb(17,13,13)" stroke="rgb(17,13,13)" stroke-width="1" opacity="1" d="M 376 0 L 403.5 0 L 404 0.5 L 404 9 L 376.5 9 L 376 8.5 L 376 0 Z " /><path fill="rgb(17,13,13)" stroke="rgb(17,13,13)" stroke-width="1" opacity="1" d="M 406 0 L 433.5 0 L 434 0.5 L 434 9 L 406.5 9 L 406 8.5 L 406 0 Z " /><path fill="rgb(17,13,13)" stroke="rgb(17,13,13)" stroke-width="1" opacity="1" d="M 0 11 L 14.5 11 L 16 12.5 Q 17.8 21.3 14 24.5 L 16.5 28 L 71.5 28 L 73 26.5 L 74 24.5 L 71.5 21 L 48 21 L 48 11 L 74.5 11 L 76 12.5 L 76 39 L 48 39 L 48 29.5 L 46 29 L 46 39 L 18 39 L 18 29.5 L 16 29 L 16 39 L 0 39 L 0 11 Z " /><path fill="rgb(17,13,13)" stroke="rgb(17,13,13)" stroke-width="1" opacity="1" d="M 18 11 L 44.5 11 L 46 12.5 L 46 20.5 L 45.5 21 L 18 21 L 18 11 Z " /><path fill="rgb(17,13,13)" stroke="rgb(17,13,13)" stroke-width="1" opacity="1" d="M 78 11 L 105 11 L 105 21 L 97.5 21 L 95 23.5 Q 93.5 27.9 96.5 27 L 97.5 28 L 151.5 28 Q 154.5 27.5 154 23.5 L 151.5 21 L 137 21 L 137 12.5 L 138.5 11 L 165 11 L 165 21 L 158 22 Q 156.8 26.6 159.5 28 L 169.5 28 L 171 26.5 L 172 24.5 L 169.5 21 L 167 20.5 L 167 11 L 195 11 L 195 21 L 177.5 21 L 176 22.5 Q 175 27 177.5 28 L 232.5 28 L 234 26.5 L 235 24.5 L 232.5 21 L 227 21 L 227 11 L 255 11 L 255 21.5 L 257 20.5 L 257 11 L 283.5 11 L 285 12.5 L 285 21 L 258.5 21 L 256 23.5 Q 255.5 27.5 258.5 28 L 312.5 28 L 315 27 L 315 39 L 287 39 L 287 29.5 L 285 29 L 285 39 L 257 39 L 257 28.5 L 255.5 26 L 255 39 L 227.5 39 L 227 38.5 L 227 29.5 L 225 29 L 225 39 L 197 39 L 197 29.5 L 195 29 L 195 39 L 167 39 L 167 29.5 L 165 29 L 165 39 L 137 39 L 137 29.5 L 135 29 L 135 39 L 107 39 L 107 29.5 L 105 29 L 105 39 L 78 39 L 78 28.5 L 77 26.5 L 79.5 28 Q 87.7 29.1 91 27 L 91 22 L 89.5 22 L 88.5 21 L 79.5 21 L 77 22.5 L 78 20.5 L 78 11 Z M 241 21 L 238 25 L 239 27 L 241 28 L 251 28 Q 253 27 252 22 Q 249 20 241 21 Z " /><path fill="rgb(17,13,13)" stroke="rgb(17,13,13)" stroke-width="1" opacity="1" d="M 108.5 11 L 135 11 L 135 21 L 107.5 21 L 107 20.5 L 107 12.5 L 108.5 11 Z " /><path fill="rgb(17,13,13)" stroke="rgb(17,13,13)" stroke-width="1" opacity="1" d="M 197 11 L 225 11 L 225 21 L 197 21 L 197 11 Z " /><path fill="rgb(17,13,13)" stroke="rgb(17,13,13)" stroke-width="1" opacity="1" d="M 287 11 L 313.5 11 L 315 12.5 L 315 21.5 L 313.5 22 L 312.5 21 L 287 21 L 287 11 Z " /><path fill="rgb(17,13,13)" stroke="rgb(17,13,13)" stroke-width="1" opacity="1" d="M 317 11 L 344 11 L 344 21 L 337 22 Q 335.8 26.6 338.5 28 L 393.5 28 L 396 25.5 Q 396.5 21.5 393.5 21 L 376 21 L 376 12.5 L 377.5 11 L 404 11 L 404 20.5 L 401.5 21 L 399 24.5 L 401.5 28 L 411.5 28 L 413 26.5 Q 414 22 411.5 21 L 406 21 L 406 12.5 L 407.5 11 L 434 11 L 434 39 L 406 39 L 406 29.5 L 404 29 L 404 39 L 376 39 L 376 29.5 L 374 29 L 374 39 L 346 39 L 346 29.5 L 344 29 L 344 39 L 317 39 L 317 11 Z M 322 21 Q 319 22 319 26 L 322 28 L 331 28 Q 334 27 333 24 L 331 21 L 322 21 Z " /><path fill="rgb(17,13,13)" stroke="rgb(17,13,13)" stroke-width="1" opacity="1" d="M 347.5 11 L 374 11 L 374 21 L 346.5 21 L 346 20.5 L 346 12.5 L 347.5 11 Z " /><path fill="rgb(17,13,13)" stroke="rgb(17,13,13)" stroke-width="1" opacity="1" d="M 315.5 23 L 316 25.5 L 315 25.5 L 315.5 23 Z " /><path fill="rgb(17,13,13)" stroke="rgb(17,13,13)" stroke-width="1" opacity="1" d="M 0 41 L 16 41 L 16 69 L 0 69 L 0 41 Z " /><path fill="rgb(17,13,13)" stroke="rgb(17,13,13)" stroke-width="1" opacity="1" d="M 18 41 L 46 41 L 46 69 L 18 69 L 18 41 Z " /><path fill="rgb(17,13,13)" stroke="rgb(17,13,13)" stroke-width="1" opacity="1" d="M 48 41 L 74.5 41 L 76 42.5 Q 77.5 46.9 74.5 46 L 73.5 45 L 65.5 45 L 63 46 L 63 69 L 48 69 L 48 41 Z " /><path fill="rgb(17,13,13)" stroke="rgb(17,13,13)" stroke-width="1" opacity="1" d="M 78 41 L 105 41 L 105 69 L 102 68.5 L 102 47.5 L 99.5 45 L 90.5 45 L 88 47.5 L 82.5 68 L 78 53.5 L 78 41 Z " /><path fill="rgb(17,13,13)" stroke="rgb(17,13,13)" stroke-width="1" opacity="1" d="M 108.5 41 L 134.5 41 L 135 44.5 L 134 45.5 L 134 69 L 115 69 L 115 51 L 128.5 51 L 131 48.5 L 129.5 45 L 107.5 45 L 107 42.5 L 108.5 41 Z M 118 60 Q 115 61 116 67 Q 118 70 125 68 Q 128 67 127 63 Q 125 58 118 60 Z " /><path fill="rgb(17,13,13)" stroke="rgb(17,13,13)" stroke-width="1" opacity="1" d="M 137 41 L 165 41 L 165 69 L 158.5 70 L 157 67.5 L 161 64.5 L 162 62.5 L 162 50.5 L 158.5 46 L 156.5 45 L 137 45 L 137 41 Z " /><path fill="rgb(17,13,13)" stroke="rgb(17,13,13)" stroke-width="1" opacity="1" d="M 167 41 L 194.5 41 L 195 45 L 189.5 45 L 189 45.5 L 189 69.5 L 188 69.5 L 181 50.5 L 177.5 45 L 168.5 45 L 167.5 46 L 167 41 Z " /><path fill="rgb(17,13,13)" stroke="rgb(17,13,13)" stroke-width="1" opacity="1" d="M 197 41 L 224.5 41 L 225 44.5 L 225.5 46 L 224.5 45 L 203.5 45 L 202 46.5 L 202 69 Q 196.8 67.3 198 71 L 202 71 L 202 82.5 Q 203.5 85.5 209.5 84 L 211.5 84 L 224.5 84 L 230 80.5 L 231 71 L 235 71 L 235 77.5 L 238.5 83 L 240.5 84 L 259.5 84 L 264 80.5 L 265 71 L 268.5 70 L 268 71.5 L 265 82.5 L 266.5 84 L 274 84 L 277.5 72 L 279.5 76 Q 286.3 77.8 288 74.5 L 288.5 73 L 293.5 84 L 301 84 L 301 79.5 L 298 71 L 302 71 L 302 82.5 Q 303.3 86.3 309.5 85 L 312 81.5 L 312 71 L 315 71.5 L 315 97.5 L 313.5 99 L 287 99 L 287 77.5 L 285 77 L 285 99 L 257 99 L 257 85.5 L 255 85 L 255 99 L 227 99 L 227 84.5 L 225 84 L 225 99 L 197 99 L 197 46.5 L 196 45.5 L 197 41 Z " /><path fill="rgb(17,13,13)" stroke="rgb(17,13,13)" stroke-width="1" opacity="1" d="M 227 41 L 254.5 41 L 255 45 L 240.5 45 L 237 47.5 L 235 51.5 L 235 69 L 231 69 L 231 67.5 L 228 63.5 Q 231.8 60.3 230 51.5 L 227 46.5 L 227 41 Z " /><path fill="rgb(17,13,13)" stroke="rgb(17,13,13)" stroke-width="1" opacity="1" d="M 257 41 L 284.5 41 L 285 45 L 277.5 45 L 277 46.5 L 268.5 69 L 265 68.5 L 265 52.5 L 261.5 46 L 257 45 L 257 41 Z " /><path fill="rgb(17,13,13)" stroke="rgb(17,13,13)" stroke-width="1" opacity="1" d="M 287 41 L 313.5 41 L 315 42.5 L 314.5 45 L 303.5 45 L 302 46.5 L 302 69 L 297.5 70 L 291 48.5 L 288.5 45 L 287 45 L 287 41 Z " /><path fill="rgb(17,13,13)" stroke="rgb(17,13,13)" stroke-width="1" opacity="1" d="M 317 41 L 343.5 41 L 344 45 L 336 45 L 336 69 L 326 69 Q 324.9 66.3 327.5 67 L 331 62.5 L 331 50.5 L 327.5 46 L 317 45 L 317 41 Z " /><path fill="rgb(17,13,13)" stroke="rgb(17,13,13)" stroke-width="1" opacity="1" d="M 347.5 41 L 374 41 L 374 69 L 365 69 L 365 49.5 L 359.5 45 L 346 45 L 347.5 41 Z " /><path fill="rgb(17,13,13)" stroke="rgb(17,13,13)" stroke-width="1" opacity="1" d="M 376 41 L 404 41 L 404 69 L 376 69 L 376 41 Z " /><path fill="rgb(17,13,13)" stroke="rgb(17,13,13)" stroke-width="1" opacity="1" d="M 406 41 L 434 41 L 434 69 L 406 69 L 406 41 Z " /><path fill="rgb(17,13,13)" stroke="rgb(17,13,13)" stroke-width="1" opacity="1" d="M 143 51 L 151.5 51 L 153 52.5 Q 155 61 150.5 63 L 143 63 L 143 51 Z " /><path fill="rgb(17,13,13)" stroke="rgb(17,13,13)" stroke-width="1" opacity="1" d="M 210 51 L 219.5 51 L 221 52.5 L 221 60 L 213.5 60 Q 210.3 60.8 211 65.5 Q 212.5 69.5 219.5 68 Q 220.8 65.7 222 68.5 L 222 78 L 212.5 78 L 210 79.5 L 210 51 Z M 211 69 L 212 71 L 221 71 L 221 69 L 211 69 Z " /><path fill="rgb(17,13,13)" stroke="rgb(17,13,13)" stroke-width="1" opacity="1" d="M 245.5 51 L 254.5 51 L 255 52.5 L 256 53.5 L 256 75.5 L 255 78 L 244 78 L 244 71 L 254.5 71 L 255 69 L 244 69 L 244 52.5 L 245.5 51 Z " /><path fill="rgb(17,13,13)" stroke="rgb(17,13,13)" stroke-width="1" opacity="1" d="M 312 51 L 320.5 51 L 321 52.5 Q 323.5 54 322 59.5 L 319.5 63 L 317 63 L 317 52.5 L 315 52 L 315 62.5 L 312 63 L 312 51 Z " /><path fill="rgb(17,13,13)" stroke="rgb(17,13,13)" stroke-width="1" opacity="1" d="M 345.5 51 L 354.5 51 L 356 52.5 L 356 69 L 347.5 69 L 346 67.5 L 346 52.5 L 345.5 51 Z " /><path fill="rgb(17,13,13)" stroke="rgb(17,13,13)" stroke-width="1" opacity="1" d="M 283.5 56 L 286 62.5 L 285 66.5 L 285.5 68 L 279 67.5 L 283.5 56 Z " /><path fill="rgb(17,13,13)" stroke="rgb(17,13,13)" stroke-width="1" opacity="1" d="M 176.5 61 L 180 69.5 L 178.5 69 L 176 68.5 L 176.5 61 Z " /><path fill="rgb(17,13,13)" stroke="rgb(17,13,13)" stroke-width="1" opacity="1" d="M 92.5 63 L 93 69 Q 90 70.3 91 66.5 L 92.5 63 Z " /><path fill="rgb(17,13,13)" stroke="rgb(17,13,13)" stroke-width="1" opacity="1" d="M 72.5 64 L 74 68.5 L 72 69 L 72.5 64 Z " /><path fill="rgb(17,13,13)" stroke="rgb(17,13,13)" stroke-width="1" opacity="1" d="M 143.5 68 L 148 68.5 L 143.5 69 L 143.5 68 Z " /><path fill="rgb(17,13,13)" stroke="rgb(17,13,13)" stroke-width="1" opacity="1" d="M 312.5 68 L 316 68.5 L 312.5 69 L 312.5 68 Z " /><path fill="rgb(17,13,13)" stroke="rgb(17,13,13)" stroke-width="1" opacity="1" d="M 148.5 70 L 157 85 Q 163.3 86.5 165 82.5 L 165.5 81 L 166 82.5 L 165 83.5 L 165 99 L 137 99 L 137 86.5 L 135 86 L 135 99 L 108.5 99 L 107 97.5 L 107 85.5 L 106 84.5 L 130.5 84 L 132 82.5 L 130.5 79 L 128.5 78 L 115 78 L 115 71 L 134 71 L 134 83.5 L 135.5 85 Q 141.8 86.3 143 82.5 L 143 71 L 147.5 71 L 148.5 70 Z " /><path fill="rgb(17,13,13)" stroke="rgb(17,13,13)" stroke-width="1" opacity="1" d="M 0 71 L 16 71 L 16 99 L 0 99 L 0 71 Z " /><path fill="rgb(17,13,13)" stroke="rgb(17,13,13)" stroke-width="1" opacity="1" d="M 18 71 L 46 71 L 46 97.5 L 44.5 99 L 18 99 L 18 71 Z " /><path fill="rgb(17,13,13)" stroke="rgb(17,13,13)" stroke-width="1" opacity="1" d="M 48 71 L 63 71 L 63 84 L 70.5 84 L 72 82.5 L 72 71 Q 76.1 69.3 75 73.5 L 76 74.5 L 76 97.5 L 74.5 99 L 48 99 L 48 71 Z " /><path fill="rgb(17,13,13)" stroke="rgb(17,13,13)" stroke-width="1" opacity="1" d="M 90 71 L 93 71.5 L 93 84 L 100.5 84 L 102 82.5 L 102 71 L 105 71.5 L 105 99 L 78 99 L 78 83.5 L 79.5 84 Q 85.5 85.5 87 82.5 L 90 71 Z " /><path fill="rgb(17,13,13)" stroke="rgb(17,13,13)" stroke-width="1" opacity="1" d="M 159.5 71 L 165 71 L 165 79.5 L 164 79.5 L 159.5 71 Z " /><path fill="rgb(17,13,13)" stroke="rgb(17,13,13)" stroke-width="1" opacity="1" d="M 176 71 L 181 71 L 181 73.5 L 186.5 84 L 194.5 84 L 195.5 83 L 195 84.5 L 195 99 L 167 99 L 167.5 83 L 168.5 84 L 175 84 L 176 81.5 L 176 71 Z " /><path fill="rgb(17,13,13)" stroke="rgb(17,13,13)" stroke-width="1" opacity="1" d="M 317.5 71 L 326.5 85 Q 332.8 86.3 334 82.5 L 328 71.5 L 336 71 L 336 84 L 360.5 84 Q 367.3 81.5 365 71 L 373.5 71 L 374 71.5 L 374 99 L 347.5 99 L 346 97.5 L 346 85.5 L 344 85 L 344 99 L 317 99 L 317.5 71 Z " /><path fill="rgb(17,13,13)" stroke="rgb(17,13,13)" stroke-width="1" opacity="1" d="M 346 71 L 356 71 L 356 78 L 346.5 78 L 345.5 79 L 346 77.5 L 346 71 Z " /><path fill="rgb(17,13,13)" stroke="rgb(17,13,13)" stroke-width="1" opacity="1" d="M 376 71 L 404 71 L 404 99 L 377.5 99 L 376 97.5 L 376 71 Z " /><path fill="rgb(17,13,13)" stroke="rgb(17,13,13)" stroke-width="1" opacity="1" d="M 406 71 L 434 71 L 434 99 L 406 99 L 406 71 Z " /><path fill="rgb(17,13,13)" stroke="rgb(17,13,13)" stroke-width="1" opacity="1" d="M 0 101 L 15.5 101 Q 14.9 103.8 18 103 L 18.5 101 L 46 101 Q 45 104 48 103 L 48.5 101 L 76 101 L 76 127.5 L 74.5 129 L 48 129 L 48 111 L 71.5 111 L 74 108.5 L 73 105 L 70.5 104 L 17.5 104 L 15 105 L 14 108.5 L 16 110.5 L 16 127.5 L 14.5 129 L 0 129 L 0 101 Z " /><path fill="rgb(17,13,13)" stroke="rgb(17,13,13)" stroke-width="1" opacity="1" d="M 78 101 L 104.5 101 Q 103.9 103.8 107 103 L 107.5 101 L 135 101 Q 134 104 137 103 L 137.5 101 L 165 101 Q 164 104 167 103 L 167.5 101 L 195 101 Q 194 104 197 103 L 197.5 101 L 225 101 Q 224 104 227 103 L 227.5 101 L 255 101 L 255.5 106 L 257 101 L 284.5 101 Q 283.9 103.8 287 103 L 287.5 101 L 315 101 L 316 108.5 L 315 108.5 Q 315.5 104.5 312.5 104 L 258.5 104 L 256 106.5 L 257 111 L 285 111 L 285 127.5 L 283.5 129 L 257 129 L 257 111.5 L 255.5 110 L 255 129 L 227 129 L 227 111 Q 233.3 112.5 235 108.5 L 232.5 104 L 178.5 104 L 176 105 Q 174.8 109.6 177.5 111 L 195 111 L 195 129 L 167 129 L 167 111 Q 170.8 111.8 172 108.5 L 169.5 104 Q 161.3 102.9 158 105 Q 156.8 109.6 159.5 111 Q 164.9 110.4 165 111.5 L 165 129 L 138.5 129 L 137 127.5 L 137 111 L 152.5 111 L 153 109.5 L 154 106.5 L 151.5 104 L 97.5 104 Q 94.3 104.8 95 109.5 L 96.5 111 L 105 111 L 105 129 L 78 129 L 78 111.5 L 77 109.5 L 78 109.5 L 78.5 111 L 89.5 111 Q 91.8 110.3 91 106.5 L 88.5 104 L 79.5 104 L 77 105.5 L 78 101 Z M 241 104 L 238 109 L 241 111 L 251 111 Q 253 110 252 105 Q 249 103 241 104 Z " /><path fill="rgb(17,13,13)" stroke="rgb(17,13,13)" stroke-width="1" opacity="1" d="M 317 101 L 343.5 101 Q 342.9 103.8 346 103 L 346.5 101 L 374 101 Q 373 104 376 103 L 376.5 101 L 404 101 Q 403 104 406 103 L 406.5 101 L 434 101 L 434 129 L 407.5 129 L 406 127.5 L 406 111 Q 411.4 112.5 413 109.5 Q 414 105 411.5 104 Q 403.3 102.9 400 105 L 399 108.5 Q 400.2 111.8 404 111 L 404 129 L 377.5 129 L 376 127.5 L 376 111 L 394.5 111 L 395 109.5 L 396 106.5 L 393.5 104 L 339.5 104 L 337 105 Q 335.8 109.6 338.5 111 Q 343.9 110.4 344 111.5 L 344 129 L 317 129 L 317 101 Z M 322 104 Q 318 105 319 110 L 321 111 L 332 111 Q 334 110 333 107 L 331 104 L 322 104 Z " /><path fill="rgb(17,13,13)" stroke="rgb(17,13,13)" stroke-width="1" opacity="1" d="M 314.5 110 L 315 127.5 L 313.5 129 L 287 129 L 287 111 L 313.5 111 L 314.5 110 Z " /><path fill="rgb(17,13,13)" stroke="rgb(17,13,13)" stroke-width="1" opacity="1" d="M 18 111 L 46 111 L 46 127.5 L 44.5 129 L 18 129 L 18 111 Z " /><path fill="rgb(17,13,13)" stroke="rgb(17,13,13)" stroke-width="1" opacity="1" d="M 107 111 L 135 111 L 135 129 L 108.5 129 L 107 127.5 L 107 111 Z " /><path fill="rgb(17,13,13)" stroke="rgb(17,13,13)" stroke-width="1" opacity="1" d="M 197 111 L 225 111 L 225 129 L 197 129 L 197 111 Z " /><path fill="rgb(17,13,13)" stroke="rgb(17,13,13)" stroke-width="1" opacity="1" d="M 346 111 L 374 111 L 374 129 L 347.5 129 L 346 127.5 L 346 111 Z " /><path fill="rgb(17,13,13)" stroke="rgb(17,13,13)" stroke-width="1" opacity="1" d="M 0 131 L 15.5 131 L 16 136 L 0.5 136 L 0 131 Z " /><path fill="rgb(17,13,13)" stroke="rgb(17,13,13)" stroke-width="1" opacity="1" d="M 18 131 L 45.5 131 L 46 136 L 18.5 136 L 18 131 Z " /><path fill="rgb(17,13,13)" stroke="rgb(17,13,13)" stroke-width="1" opacity="1" d="M 48 131 L 75.5 131 L 76 136 L 48.5 136 L 48 131 Z " /><path fill="rgb(17,13,13)" stroke="rgb(17,13,13)" stroke-width="1" opacity="1" d="M 78 131 L 104.5 131 L 105 136 L 78.5 136 L 78 131 Z " /><path fill="rgb(17,13,13)" stroke="rgb(17,13,13)" stroke-width="1" opacity="1" d="M 107 131 L 134.5 131 L 135 136 L 107.5 136 L 107 131 Z " /><path fill="rgb(17,13,13)" stroke="rgb(17,13,13)" stroke-width="1" opacity="1" d="M 137 131 L 164.5 131 L 165 136 L 137.5 136 L 137 131 Z " /><path fill="rgb(17,13,13)" stroke="rgb(17,13,13)" stroke-width="1" opacity="1" d="M 167 131 L 194.5 131 L 195 136 L 167.5 136 L 167 131 Z " /><path fill="rgb(17,13,13)" stroke="rgb(17,13,13)" stroke-width="1" opacity="1" d="M 197 131 L 224.5 131 L 225 136 L 197.5 136 L 197 131 Z " /><path fill="rgb(17,13,13)" stroke="rgb(17,13,13)" stroke-width="1" opacity="1" d="M 227 131 L 254.5 131 L 255 136 L 227.5 136 L 227 131 Z " /><path fill="rgb(17,13,13)" stroke="rgb(17,13,13)" stroke-width="1" opacity="1" d="M 257 131 L 284.5 131 L 285 136 L 257.5 136 L 257 131 Z " /><path fill="rgb(17,13,13)" stroke="rgb(17,13,13)" stroke-width="1" opacity="1" d="M 287 131 L 314.5 131 L 315 136 L 287.5 136 L 287 131 Z " /><path fill="rgb(17,13,13)" stroke="rgb(17,13,13)" stroke-width="1" opacity="1" d="M 317 131 L 343.5 131 L 344 136 L 317.5 136 L 317 131 Z " /><path fill="rgb(17,13,13)" stroke="rgb(17,13,13)" stroke-width="1" opacity="1" d="M 346 131 L 373.5 131 L 374 136 L 346.5 136 L 346 131 Z " /><path fill="rgb(17,13,13)" stroke="rgb(17,13,13)" stroke-width="1" opacity="1" d="M 376 131 L 403.5 131 L 404 136 L 376.5 136 L 376 131 Z " /><path fill="rgb(17,13,13)" stroke="rgb(17,13,13)" stroke-width="1" opacity="1" d="M 406 131 L 433.5 131 L 434 136 L 406.5 136 L 406 131 Z " /><path fill="rgb(254,254,254)" stroke="rgb(254,254,254)" stroke-width="1" opacity="1" d="M 67.5 46 Q 73 45 74 48.5 L 81 74 L 84 72.5 L 91 47 L 97.5 46 L 99 47.5 L 99 83 L 95 81.5 L 95 56.5 L 92.5 56 L 89 63.5 L 84 83 Q 80.2 84.5 81 81.5 L 73 56 L 69 56.5 L 69 82.5 L 66 83 L 66 47.5 L 67.5 46 Z " /><path fill="rgb(254,254,254)" stroke="rgb(254,254,254)" stroke-width="1" opacity="1" d="M 109.5 46 L 127.5 46 L 128 48.5 L 126.5 50 L 112 50 L 112 79 L 127.5 79 L 129 83 L 109.5 83 L 108 81.5 L 108 47.5 L 109.5 46 Z " /><path fill="rgb(254,254,254)" stroke="rgb(254,254,254)" stroke-width="1" opacity="1" d="M 137.5 46 L 154.5 46 L 158 48.5 L 159 50.5 L 159 63.5 L 154 67.5 Q 159.7 73.3 162 82.5 Q 160 86 158 81.5 L 149.5 68 Q 142.8 70 145 64 Q 153.2 65.5 156 60.5 Q 157.5 52.5 153.5 50 L 140 50 L 140 82.5 L 136 83 L 136 47.5 L 137.5 46 Z " /><path fill="rgb(254,254,254)" stroke="rgb(254,254,254)" stroke-width="1" opacity="1" d="M 171.5 46 Q 176 45 177 47.5 L 187 74 L 191 73.5 L 191 46.5 L 193.5 46 L 195 47.5 L 195 81.5 Q 193.8 84.3 188.5 83 L 185 77.5 L 177 55 L 173 55.5 L 173 82.5 L 170 83 L 170 47.5 L 171.5 46 Z " /><path fill="rgb(254,254,254)" stroke="rgb(254,254,254)" stroke-width="1" opacity="1" d="M 205.5 46 L 222.5 46 L 227 49.5 L 227 61.5 L 225 63.5 L 228 66.5 L 228 79.5 Q 224.7 85.2 213.5 83 Q 210.8 81.7 213 80.5 L 213.5 79 L 222.5 79 L 224 77.5 L 224 67.5 Q 223 65 218.5 66 Q 217 69.5 215.5 67 Q 213.3 67.8 214 65.5 L 213 63.5 L 214 61 L 219.5 62 L 223 61 L 223 51.5 L 221.5 50 L 208 50 L 208 82.5 L 204 83 L 204 47.5 L 205.5 46 Z " /><path fill="rgb(254,254,254)" stroke="rgb(254,254,254)" stroke-width="1" opacity="1" d="M 242.5 46 L 257.5 46 L 261 48 L 262 50.5 L 262 78.5 L 259.5 82 L 257.5 83 L 242.5 83 L 238 79.5 L 238 49.5 L 240.5 47 L 242.5 46 Z M 244 50 L 241 54 L 241 76 L 242 78 L 244 79 L 257 79 L 258 78 L 258 52 L 257 50 L 244 50 Z " /><path fill="rgb(254,254,254)" stroke="rgb(254,254,254)" stroke-width="1" opacity="1" d="M 280.5 46 Q 287.5 44.5 287 47.5 L 298 78.5 L 298 83 Q 293.9 84.7 295 80.5 L 286 53.5 L 283.5 50 Q 281.3 49.3 282 51.5 L 270.5 83 Q 266.8 84.3 268 80.5 L 278 49.5 L 280.5 46 Z " /><path fill="rgb(254,254,254)" stroke="rgb(254,254,254)" stroke-width="1" opacity="1" d="M 306.5 46 L 323.5 46 L 327 48 L 328 50.5 L 328 62.5 L 325.5 66 L 323 67.5 L 331 82.5 L 329.5 84 L 326 80.5 L 318.5 68 Q 314 69 313 66.5 L 314.5 64 Q 321.4 64.9 324 61.5 L 324 51.5 L 322.5 50 L 309 50 L 309 81.5 L 305 83 L 305 47.5 L 306.5 46 Z " /><path fill="rgb(254,254,254)" stroke="rgb(254,254,254)" stroke-width="1" opacity="1" d="M 339.5 46 L 357.5 46 L 362 49.5 L 362 79.5 L 359.5 82 L 357.5 83 L 347 83 L 348.5 79 L 357.5 79 L 358 77.5 L 359 76.5 L 359 52.5 L 358 50 L 342 50 L 342 81.5 L 339.5 83 L 338 81.5 L 338 47.5 L 339.5 46 Z " /><path fill="rgb(254,254,254)" stroke="rgb(254,254,254)" stroke-width="1" opacity="1" d="M 120.5 61 L 124 62.5 Q 124.8 67.3 121.5 68 L 119 67 L 118 63.5 L 120.5 61 Z " /><path fill="rgb(254,254,254)" stroke="rgb(254,254,254)" stroke-width="1" opacity="1" d="M 281 69 L 285 69 L 285 70.5 L 286 72.5 L 285 75 L 281 75 L 281 69 Z " /><path fill="rgb(96,94,94)" stroke="rgb(96,94,94)" stroke-width="1" opacity="1" d="M 65.5 45 L 67 45.5 L 64.5 47 L 65.5 45 Z " /><path fill="rgb(96,94,94)" stroke="rgb(96,94,94)" stroke-width="1" opacity="1" d="M 91.5 45 L 89.5 48 L 91.5 45 Z " /><path fill="rgb(96,94,94)" stroke="rgb(96,94,94)" stroke-width="1" opacity="1" d="M 98.5 45 L 101 47.5 L 101 82.5 L 99 83.5 L 100 82.5 L 100 47.5 L 98.5 45 Z " /><path fill="rgb(96,94,94)" stroke="rgb(96,94,94)" stroke-width="1" opacity="1" d="M 107.5 45 L 107 46.5 L 107 82.5 L 108 83.5 L 106 82.5 L 106 46.5 L 107.5 45 Z " /><path fill="rgb(96,94,94)" stroke="rgb(96,94,94)" stroke-width="1" opacity="1" d="M 135.5 45 L 135 46.5 L 134.5 83 L 134 46.5 L 135.5 45 Z " /><path fill="rgb(96,94,94)" stroke="rgb(96,94,94)" stroke-width="1" opacity="1" d="M 169.5 45 L 168 47.5 L 168 82.5 L 169 83.5 L 167 82.5 L 167 47.5 L 169.5 45 Z " /><path fill="rgb(96,94,94)" stroke="rgb(96,94,94)" stroke-width="1" opacity="1" d="M 176.5 45 L 178.5 48 L 176.5 45 Z " /><path fill="rgb(96,94,94)" stroke="rgb(96,94,94)" stroke-width="1" opacity="1" d="M 190.5 45 L 190 46.5 L 190 72.5 L 188.5 73 L 189 71.5 L 189 46.5 L 190.5 45 Z " /><path fill="rgb(96,94,94)" stroke="rgb(96,94,94)" stroke-width="1" opacity="1" d="M 278.5 45 L 278 46.5 L 277.5 48 L 277 46.5 L 278.5 45 Z " /><path fill="rgb(96,94,94)" stroke="rgb(96,94,94)" stroke-width="1" opacity="1" d="M 287.5 45 L 288.5 47 L 287.5 45 Z " /><path fill="rgb(96,94,94)" stroke="rgb(96,94,94)" stroke-width="1" opacity="1" d="M 304.5 45 L 304 46.5 L 303.5 83 L 303 46.5 L 304.5 45 Z " /><path fill="rgb(96,94,94)" stroke="rgb(96,94,94)" stroke-width="1" opacity="1" d="M 129.5 46 L 130 49.5 L 129 49.5 L 129.5 46 Z " /><path fill="rgb(96,94,94)" stroke="rgb(96,94,94)" stroke-width="1" opacity="1" d="M 157.5 46 L 159.5 49 L 157.5 46 Z " /><path fill="rgb(96,94,94)" stroke="rgb(96,94,94)" stroke-width="1" opacity="1" d="M 260.5 46 L 262.5 49 L 260.5 46 Z " /><path fill="rgb(96,94,94)" stroke="rgb(96,94,94)" stroke-width="1" opacity="1" d="M 326.5 46 L 328.5 49 L 326.5 46 Z " /><path fill="rgb(96,94,94)" stroke="rgb(96,94,94)" stroke-width="1" opacity="1" d="M 196.5 47 L 197 80.5 L 196 80.5 L 196.5 47 Z " /><path fill="rgb(96,94,94)" stroke="rgb(96,94,94)" stroke-width="1" opacity="1" d="M 202.5 47 L 203 82.5 L 204 83.5 L 202 82.5 L 202.5 47 Z " /><path fill="rgb(96,94,94)" stroke="rgb(96,94,94)" stroke-width="1" opacity="1" d="M 336.5 47 L 337 82.5 L 338 83.5 L 336 82.5 L 336.5 47 Z " /><path fill="rgb(96,94,94)" stroke="rgb(96,94,94)" stroke-width="1" opacity="1" d="M 237.5 48 L 237 49.5 L 236.5 52 L 236 49.5 L 237.5 48 Z " /><path fill="rgb(96,94,94)" stroke="rgb(96,94,94)" stroke-width="1" opacity="1" d="M 362.5 48 L 364 51.5 L 363 51.5 L 362.5 48 Z " /><path fill="rgb(96,94,94)" stroke="rgb(96,94,94)" stroke-width="1" opacity="1" d="M 88.5 49 L 89 51.5 L 88 51.5 L 88.5 49 Z " /><path fill="rgb(96,94,94)" stroke="rgb(96,94,94)" stroke-width="1" opacity="1" d="M 179.5 49 L 181 52.5 L 180 52.5 L 179.5 49 Z " /><path fill="rgb(96,94,94)" stroke="rgb(96,94,94)" stroke-width="1" opacity="1" d="M 113.5 50 L 114 78.5 L 113 78.5 L 113.5 50 Z " /><path fill="rgb(96,94,94)" stroke="rgb(96,94,94)" stroke-width="1" opacity="1" d="M 141.5 50 L 142.5 64 L 144 63.5 L 143 66.5 L 143.5 68 L 142 67.5 L 142 82.5 L 140.5 84 L 141 82.5 L 141.5 50 Z " /><path fill="rgb(96,94,94)" stroke="rgb(96,94,94)" stroke-width="1" opacity="1" d="M 160.5 50 L 161 63.5 L 157 66.5 L 160 63.5 L 160.5 50 Z " /><path fill="rgb(96,94,94)" stroke="rgb(96,94,94)" stroke-width="1" opacity="1" d="M 209.5 50 L 210 80.5 L 211 81.5 L 208 83.5 L 209 82.5 L 209.5 50 Z " /><path fill="rgb(96,94,94)" stroke="rgb(96,94,94)" stroke-width="1" opacity="1" d="M 220.5 50 L 222 52.5 L 221 52.5 L 220.5 50 Z " /><path fill="rgb(96,94,94)" stroke="rgb(96,94,94)" stroke-width="1" opacity="1" d="M 244.5 50 L 243.5 52 L 244.5 50 Z " /><path fill="rgb(96,94,94)" stroke="rgb(96,94,94)" stroke-width="1" opacity="1" d="M 310.5 50 L 311.5 64 L 313 63.5 L 312 66.5 L 312.5 68 L 311 67.5 L 310.5 82 L 310.5 50 Z " /><path fill="rgb(96,94,94)" stroke="rgb(96,94,94)" stroke-width="1" opacity="1" d="M 329.5 50 L 330 62.5 L 329 62.5 L 329.5 50 Z " /><path fill="rgb(96,94,94)" stroke="rgb(96,94,94)" stroke-width="1" opacity="1" d="M 343.5 50 L 344.5 80 L 346 79.5 L 342.5 84 L 343 82.5 L 343.5 50 Z " /><path fill="rgb(96,94,94)" stroke="rgb(96,94,94)" stroke-width="1" opacity="1" d="M 355.5 50 L 356.5 52 L 355.5 50 Z " /><path fill="rgb(96,94,94)" stroke="rgb(96,94,94)" stroke-width="1" opacity="1" d="M 153.5 51 L 154 61.5 L 152 62.5 L 153 61.5 L 153.5 51 Z " /><path fill="rgb(96,94,94)" stroke="rgb(96,94,94)" stroke-width="1" opacity="1" d="M 263.5 51 L 264 77.5 L 263 77.5 L 263.5 51 Z " /><path fill="rgb(96,94,94)" stroke="rgb(96,94,94)" stroke-width="1" opacity="1" d="M 256.5 52 L 257 76.5 L 256 76.5 L 256.5 52 Z " /><path fill="rgb(96,94,94)" stroke="rgb(96,94,94)" stroke-width="1" opacity="1" d="M 322.5 52 L 323 61.5 L 321 62.5 L 322 61.5 L 322.5 52 Z " /><path fill="rgb(96,94,94)" stroke="rgb(96,94,94)" stroke-width="1" opacity="1" d="M 282 53 L 284 53.5 L 282 54.5 L 282 53 Z " /><path fill="rgb(96,94,94)" stroke="rgb(96,94,94)" stroke-width="1" opacity="1" d="M 77.5 54 L 79 59.5 L 78 59.5 L 77.5 54 Z " /><path fill="rgb(96,94,94)" stroke="rgb(96,94,94)" stroke-width="1" opacity="1" d="M 181.5 54 L 183 57.5 L 182 57.5 L 181.5 54 Z " /><path fill="rgb(96,94,94)" stroke="rgb(96,94,94)" stroke-width="1" opacity="1" d="M 86.5 56 L 87 58.5 L 86 58.5 L 86.5 56 Z " /><path fill="rgb(96,94,94)" stroke="rgb(96,94,94)" stroke-width="1" opacity="1" d="M 174 56 Q 176.7 54.9 176 57.5 L 175 58.5 L 175 82.5 L 173.5 84 L 174 82.5 L 174 56 Z " /><path fill="rgb(96,94,94)" stroke="rgb(96,94,94)" stroke-width="1" opacity="1" d="M 71.5 57 L 73 61.5 L 71 60.5 L 71.5 57 Z " /><path fill="rgb(96,94,94)" stroke="rgb(96,94,94)" stroke-width="1" opacity="1" d="M 93.5 57 L 94 82.5 L 95 83.5 L 93 82.5 L 93 60.5 L 92 58.5 L 93.5 57 Z " /><path fill="rgb(96,94,94)" stroke="rgb(96,94,94)" stroke-width="1" opacity="1" d="M 221.5 59 L 220.5 61 L 219 60.5 L 221.5 59 Z " /><path fill="rgb(96,94,94)" stroke="rgb(96,94,94)" stroke-width="1" opacity="1" d="M 228.5 59 L 229 61.5 L 227 63.5 L 228.5 66 Q 223.8 63.8 228 61.5 L 228.5 59 Z " /><path fill="rgb(96,94,94)" stroke="rgb(96,94,94)" stroke-width="1" opacity="1" d="M 118.5 60 L 117.5 62 L 118.5 60 Z " /><path fill="rgb(96,94,94)" stroke="rgb(96,94,94)" stroke-width="1" opacity="1" d="M 213.5 60 L 212.5 62 L 213.5 60 Z " /><path fill="rgb(96,94,94)" stroke="rgb(96,94,94)" stroke-width="1" opacity="1" d="M 91.5 61 L 92 63.5 L 90.5 67 L 90 64.5 L 91.5 61 Z " /><path fill="rgb(96,94,94)" stroke="rgb(96,94,94)" stroke-width="1" opacity="1" d="M 125.5 62 L 126 66.5 L 125 66.5 L 125.5 62 Z " /><path fill="rgb(96,94,94)" stroke="rgb(96,94,94)" stroke-width="1" opacity="1" d="M 84.5 63 L 85 65.5 L 84 65.5 L 84.5 63 Z " /><path fill="rgb(96,94,94)" stroke="rgb(96,94,94)" stroke-width="1" opacity="1" d="M 80.5 64 L 81 66.5 L 80 66.5 L 80.5 64 Z " /><path fill="rgb(96,94,94)" stroke="rgb(96,94,94)" stroke-width="1" opacity="1" d="M 328.5 64 L 326.5 67 L 328.5 64 Z " /><path fill="rgb(96,94,94)" stroke="rgb(96,94,94)" stroke-width="1" opacity="1" d="M 117.5 66 L 118.5 68 L 117.5 66 Z " /><path fill="rgb(96,94,94)" stroke="rgb(96,94,94)" stroke-width="1" opacity="1" d="M 212.5 66 L 213.5 68 L 212.5 66 Z " /><path fill="rgb(96,94,94)" stroke="rgb(96,94,94)" stroke-width="1" opacity="1" d="M 83.5 67 L 84 68.5 L 82.5 71 L 81 68.5 L 83 68.5 L 83.5 67 Z " /><path fill="rgb(96,94,94)" stroke="rgb(96,94,94)" stroke-width="1" opacity="1" d="M 222.5 67 L 223 77.5 L 221 78.5 L 222 77.5 L 222.5 67 Z " /><path fill="rgb(96,94,94)" stroke="rgb(96,94,94)" stroke-width="1" opacity="1" d="M 280.5 68 L 279.5 70 L 280.5 68 Z " /><path fill="rgb(96,94,94)" stroke="rgb(96,94,94)" stroke-width="1" opacity="1" d="M 285.5 68 L 286.5 70 L 285.5 68 Z " /><path fill="rgb(96,94,94)" stroke="rgb(96,94,94)" stroke-width="1" opacity="1" d="M 325.5 68 L 327 70.5 L 325 69.5 L 325.5 68 Z " /><path fill="rgb(96,94,94)" stroke="rgb(96,94,94)" stroke-width="1" opacity="1" d="M 149.5 70 L 150.5 72 L 149.5 70 Z " /><path fill="rgb(96,94,94)" stroke="rgb(96,94,94)" stroke-width="1" opacity="1" d="M 157.5 70 L 160 73.5 L 158 72.5 L 157.5 70 Z " /><path fill="rgb(96,94,94)" stroke="rgb(96,94,94)" stroke-width="1" opacity="1" d="M 318.5 70 L 321 73.5 L 319 72.5 L 318.5 70 Z " /><path fill="rgb(96,94,94)" stroke="rgb(96,94,94)" stroke-width="1" opacity="1" d="M 88.5 71 L 89 73.5 L 87.5 77 L 87 74.5 L 88.5 71 Z " /><path fill="rgb(96,94,94)" stroke="rgb(96,94,94)" stroke-width="1" opacity="1" d="M 76.5 72 L 77 74.5 L 76 74.5 L 76.5 72 Z " /><path fill="rgb(96,94,94)" stroke="rgb(96,94,94)" stroke-width="1" opacity="1" d="M 327.5 72 L 330 75.5 L 328 74.5 L 327.5 72 Z " /><path fill="rgb(96,94,94)" stroke="rgb(96,94,94)" stroke-width="1" opacity="1" d="M 279.5 74 L 280.5 76 L 279.5 74 Z " /><path fill="rgb(96,94,94)" stroke="rgb(96,94,94)" stroke-width="1" opacity="1" d="M 286.5 74 L 285.5 76 L 286.5 74 Z " /><path fill="rgb(96,94,94)" stroke="rgb(96,94,94)" stroke-width="1" opacity="1" d="M 152.5 75 L 153.5 77 L 152.5 75 Z " /><path fill="rgb(96,94,94)" stroke="rgb(96,94,94)" stroke-width="1" opacity="1" d="M 160.5 75 L 163 78.5 L 161 77.5 L 160.5 75 Z " /><path fill="rgb(96,94,94)" stroke="rgb(96,94,94)" stroke-width="1" opacity="1" d="M 321.5 75 L 324 78.5 L 322 77.5 L 321.5 75 Z " /><path fill="rgb(96,94,94)" stroke="rgb(96,94,94)" stroke-width="1" opacity="1" d="M 236.5 77 L 238 80.5 L 236 79.5 L 236.5 77 Z " /><path fill="rgb(96,94,94)" stroke="rgb(96,94,94)" stroke-width="1" opacity="1" d="M 243.5 77 L 244.5 79 L 243.5 77 Z " /><path fill="rgb(96,94,94)" stroke="rgb(96,94,94)" stroke-width="1" opacity="1" d="M 330.5 77 L 331.5 79 L 330.5 77 Z " /><path fill="rgb(96,94,94)" stroke="rgb(96,94,94)" stroke-width="1" opacity="1" d="M 356.5 77 L 355.5 79 L 356.5 77 Z " /><path fill="rgb(96,94,94)" stroke="rgb(96,94,94)" stroke-width="1" opacity="1" d="M 363.5 77 L 364 79.5 L 362 80.5 L 363.5 77 Z " /><path fill="rgb(96,94,94)" stroke="rgb(96,94,94)" stroke-width="1" opacity="1" d="M 130.5 80 L 131 82.5 L 129 83.5 L 130.5 80 Z " /><path fill="rgb(96,94,94)" stroke="rgb(96,94,94)" stroke-width="1" opacity="1" d="M 155.5 80 L 156.5 82 L 155.5 80 Z " /><path fill="rgb(96,94,94)" stroke="rgb(96,94,94)" stroke-width="1" opacity="1" d="M 228.5 80 L 227.5 82 L 228.5 80 Z " /><path fill="rgb(96,94,94)" stroke="rgb(96,94,94)" stroke-width="1" opacity="1" d="M 262.5 80 L 260.5 83 L 262.5 80 Z " /><path fill="rgb(96,94,94)" stroke="rgb(96,94,94)" stroke-width="1" opacity="1" d="M 266.5 80 L 268 83.5 L 266 82.5 L 266.5 80 Z " /><path fill="rgb(96,94,94)" stroke="rgb(96,94,94)" stroke-width="1" opacity="1" d="M 324.5 80 L 328 84.5 L 325 82.5 L 324.5 80 Z " /><path fill="rgb(96,94,94)" stroke="rgb(96,94,94)" stroke-width="1" opacity="1" d="M 332.5 80 L 333 82.5 L 330 84.5 L 332.5 80 Z " /><path fill="rgb(96,94,94)" stroke="rgb(96,94,94)" stroke-width="1" opacity="1" d="M 85.5 81 L 86 82.5 L 84 83.5 L 85.5 81 Z " /><path fill="rgb(96,94,94)" stroke="rgb(96,94,94)" stroke-width="1" opacity="1" d="M 195.5 82 L 194.5 84 L 195.5 82 Z " /><path fill="rgb(96,94,94)" stroke="rgb(96,94,94)" stroke-width="1" opacity="1" d="M 293.5 82 L 294.5 84 L 293.5 82 Z " /><path fill="rgb(96,94,94)" stroke="rgb(96,94,94)" stroke-width="1" opacity="1" d="M 360.5 82 L 359.5 84 L 358 83.5 L 360.5 82 Z " /><path fill="rgb(96,94,94)" stroke="rgb(96,94,94)" stroke-width="1" opacity="1" d="M 157.5 83 L 158.5 85 L 157.5 83 Z " /><path fill="rgb(96,94,94)" stroke="rgb(96,94,94)" stroke-width="1" opacity="1" d="M 136.5 84 L 139 84.5 L 136.5 85 L 136.5 84 Z " /><path fill="rgb(96,94,94)" stroke="rgb(96,94,94)" stroke-width="1" opacity="1" d="M 305.5 84 L 308 84.5 L 305.5 85 L 305.5 84 Z " /><path fill="rgb(238,238,238)" stroke="rgb(238,238,238)" stroke-width="1" opacity="1" d="M 68.5 45 L 71 45.5 L 68.5 46 L 68.5 45 Z " /><path fill="rgb(238,238,238)" stroke="rgb(238,238,238)" stroke-width="1" opacity="1" d="M 109.5 45 L 127 45.5 L 109.5 46 L 108.5 47 L 109.5 45 Z " /><path fill="rgb(238,238,238)" stroke="rgb(238,238,238)" stroke-width="1" opacity="1" d="M 137.5 45 L 154 45.5 L 137.5 46 L 136.5 47 L 137.5 45 Z " /><path fill="rgb(238,238,238)" stroke="rgb(238,238,238)" stroke-width="1" opacity="1" d="M 172.5 45 L 175 45.5 L 172.5 46 L 172.5 45 Z " /><path fill="rgb(238,238,238)" stroke="rgb(238,238,238)" stroke-width="1" opacity="1" d="M 192.5 45 L 195 46.5 L 193.5 46 L 192.5 45 Z " /><path fill="rgb(238,238,238)" stroke="rgb(238,238,238)" stroke-width="1" opacity="1" d="M 205.5 45 L 222 45.5 L 205.5 46 L 204.5 47 L 205.5 45 Z " /><path fill="rgb(238,238,238)" stroke="rgb(238,238,238)" stroke-width="1" opacity="1" d="M 243.5 45 L 256 45.5 L 243.5 46 L 243.5 45 Z " /><path fill="rgb(238,238,238)" stroke="rgb(238,238,238)" stroke-width="1" opacity="1" d="M 280.5 45 L 286 45.5 Q 280.6 44.6 279 47.5 L 278.5 49 L 278 47.5 L 280.5 45 Z " /><path fill="rgb(238,238,238)" stroke="rgb(238,238,238)" stroke-width="1" opacity="1" d="M 306.5 45 L 322 45.5 L 306.5 46 L 305.5 47 L 306.5 45 Z " /><path fill="rgb(238,238,238)" stroke="rgb(238,238,238)" stroke-width="1" opacity="1" d="M 339.5 45 L 357 45.5 L 339.5 46 L 338.5 47 L 339.5 45 Z " /><path fill="rgb(238,238,238)" stroke="rgb(238,238,238)" stroke-width="1" opacity="1" d="M 66.5 46 L 66 47.5 L 66 82.5 L 69 83 L 69.5 56 L 70 82.5 L 66.5 84 L 65 82.5 L 65 47.5 L 66.5 46 Z " /><path fill="rgb(238,238,238)" stroke="rgb(238,238,238)" stroke-width="1" opacity="1" d="M 72.5 46 L 73.5 48 L 72.5 46 Z " /><path fill="rgb(238,238,238)" stroke="rgb(238,238,238)" stroke-width="1" opacity="1" d="M 170.5 46 L 170 47.5 L 170 82.5 L 171.5 83 L 171.5 84 L 169 82.5 L 169 47.5 L 170.5 46 Z " /><path fill="rgb(238,238,238)" stroke="rgb(238,238,238)" stroke-width="1" opacity="1" d="M 176.5 46 L 178 48.5 L 177 48.5 L 176.5 46 Z " /><path fill="rgb(238,238,238)" stroke="rgb(238,238,238)" stroke-width="1" opacity="1" d="M 223.5 46 L 227 48.5 L 224.5 47 L 223.5 46 Z " /><path fill="rgb(238,238,238)" stroke="rgb(238,238,238)" stroke-width="1" opacity="1" d="M 258.5 46 L 259.5 48 L 258.5 46 Z " /><path fill="rgb(238,238,238)" stroke="rgb(238,238,238)" stroke-width="1" opacity="1" d="M 324.5 46 L 325.5 48 L 324.5 46 Z " /><path fill="rgb(238,238,238)" stroke="rgb(238,238,238)" stroke-width="1" opacity="1" d="M 128.5 47 L 129 48.5 L 127 49.5 L 128.5 47 Z " /><path fill="rgb(238,238,238)" stroke="rgb(238,238,238)" stroke-width="1" opacity="1" d="M 190.5 47 L 191 73.5 L 190 73.5 L 190.5 47 Z " /><path fill="rgb(238,238,238)" stroke="rgb(238,238,238)" stroke-width="1" opacity="1" d="M 239.5 47 L 238.5 49 L 239.5 47 Z " /><path fill="rgb(238,238,238)" stroke="rgb(238,238,238)" stroke-width="1" opacity="1" d="M 360.5 47 L 361.5 49 L 360.5 47 Z " /><path fill="rgb(238,238,238)" stroke="rgb(238,238,238)" stroke-width="1" opacity="1" d="M 153.5 50 L 154.5 52 L 153.5 50 Z " /><path fill="rgb(238,238,238)" stroke="rgb(238,238,238)" stroke-width="1" opacity="1" d="M 208.5 50 L 209 81.5 L 208 81.5 L 208.5 50 Z " /><path fill="rgb(238,238,238)" stroke="rgb(238,238,238)" stroke-width="1" opacity="1" d="M 221.5 50 L 222.5 52 L 221.5 50 Z " /><path fill="rgb(238,238,238)" stroke="rgb(238,238,238)" stroke-width="1" opacity="1" d="M 227.5 50 L 228 60.5 L 227 60.5 L 227.5 50 Z " /><path fill="rgb(238,238,238)" stroke="rgb(238,238,238)" stroke-width="1" opacity="1" d="M 237.5 50 L 238 78.5 L 237 78.5 L 237.5 50 Z " /><path fill="rgb(238,238,238)" stroke="rgb(238,238,238)" stroke-width="1" opacity="1" d="M 256.5 50 L 257.5 52 L 256.5 50 Z " /><path fill="rgb(238,238,238)" stroke="rgb(238,238,238)" stroke-width="1" opacity="1" d="M 282 50 L 285 51.5 L 282 52.5 L 281.5 54 L 281 52.5 L 282 50 Z " /><path fill="rgb(238,238,238)" stroke="rgb(238,238,238)" stroke-width="1" opacity="1" d="M 322.5 50 L 323.5 52 L 322.5 50 Z " /><path fill="rgb(238,238,238)" stroke="rgb(238,238,238)" stroke-width="1" opacity="1" d="M 342.5 50 L 343 80.5 L 342 80.5 L 342.5 50 Z " /><path fill="rgb(238,238,238)" stroke="rgb(238,238,238)" stroke-width="1" opacity="1" d="M 362.5 50 L 363 78.5 L 362 78.5 L 362.5 50 Z " /><path fill="rgb(238,238,238)" stroke="rgb(238,238,238)" stroke-width="1" opacity="1" d="M 159.5 51 L 160 61.5 L 159 61.5 L 159.5 51 Z " /><path fill="rgb(238,238,238)" stroke="rgb(238,238,238)" stroke-width="1" opacity="1" d="M 262.5 52 L 263 76.5 L 262 76.5 L 262.5 52 Z " /><path fill="rgb(238,238,238)" stroke="rgb(238,238,238)" stroke-width="1" opacity="1" d="M 328.5 52 L 329 60.5 L 328 60.5 L 328.5 52 Z " /><path fill="rgb(238,238,238)" stroke="rgb(238,238,238)" stroke-width="1" opacity="1" d="M 358.5 52 L 359 76.5 L 358 76.5 L 358.5 52 Z " /><path fill="rgb(238,238,238)" stroke="rgb(238,238,238)" stroke-width="1" opacity="1" d="M 155.5 53 L 156 60.5 L 154 61.5 L 155.5 53 Z " /><path fill="rgb(238,238,238)" stroke="rgb(238,238,238)" stroke-width="1" opacity="1" d="M 241.5 53 L 242 75.5 L 241 75.5 L 241.5 53 Z " /><path fill="rgb(238,238,238)" stroke="rgb(238,238,238)" stroke-width="1" opacity="1" d="M 88.5 54 L 89 56.5 L 88 56.5 L 88.5 54 Z " /><path fill="rgb(238,238,238)" stroke="rgb(238,238,238)" stroke-width="1" opacity="1" d="M 173.5 55 L 174 81.5 L 173 81.5 L 173.5 55 Z " /><path fill="rgb(238,238,238)" stroke="rgb(238,238,238)" stroke-width="1" opacity="1" d="M 92.5 56 L 92 57.5 L 91.5 59 L 91 57.5 L 92.5 56 Z " /><path fill="rgb(238,238,238)" stroke="rgb(238,238,238)" stroke-width="1" opacity="1" d="M 120.5 60 Q 124.5 59.5 125 62.5 Q 125.8 67.3 122.5 68 L 124 65.5 Q 124.8 61.8 122.5 61 L 118.5 63 L 120.5 60 Z " /><path fill="rgb(238,238,238)" stroke="rgb(238,238,238)" stroke-width="1" opacity="1" d="M 215.5 60 L 218 60.5 L 215.5 61 L 215.5 60 Z " /><path fill="rgb(238,238,238)" stroke="rgb(238,238,238)" stroke-width="1" opacity="1" d="M 74.5 61 L 75 63.5 L 74 63.5 L 74.5 61 Z " /><path fill="rgb(238,238,238)" stroke="rgb(238,238,238)" stroke-width="1" opacity="1" d="M 86.5 61 L 87 63.5 L 86 63.5 L 86.5 61 Z " /><path fill="rgb(238,238,238)" stroke="rgb(238,238,238)" stroke-width="1" opacity="1" d="M 323.5 61 L 322.5 63 L 323.5 61 Z " /><path fill="rgb(238,238,238)" stroke="rgb(238,238,238)" stroke-width="1" opacity="1" d="M 78.5 62 L 79 64.5 L 78 64.5 L 78.5 62 Z " /><path fill="rgb(238,238,238)" stroke="rgb(238,238,238)" stroke-width="1" opacity="1" d="M 226.5 62 L 225.5 64 L 226.5 62 Z " /><path fill="rgb(238,238,238)" stroke="rgb(238,238,238)" stroke-width="1" opacity="1" d="M 145.5 63 L 152 63.5 L 145 64 L 144.5 68 L 144 64.5 L 145.5 63 Z " /><path fill="rgb(238,238,238)" stroke="rgb(238,238,238)" stroke-width="1" opacity="1" d="M 314.5 63 L 320 63.5 L 313.5 65 L 314.5 63 Z " /><path fill="rgb(238,238,238)" stroke="rgb(238,238,238)" stroke-width="1" opacity="1" d="M 158.5 64 L 157.5 66 L 158.5 64 Z " /><path fill="rgb(238,238,238)" stroke="rgb(238,238,238)" stroke-width="1" opacity="1" d="M 218.5 66 L 217.5 68 L 218.5 66 Z " /><path fill="rgb(238,238,238)" stroke="rgb(238,238,238)" stroke-width="1" opacity="1" d="M 222.5 66 L 223.5 68 L 222.5 66 Z " /><path fill="rgb(238,238,238)" stroke="rgb(238,238,238)" stroke-width="1" opacity="1" d="M 324.5 66 L 324 67.5 L 325 69.5 L 323 68.5 L 324.5 66 Z " /><path fill="rgb(238,238,238)" stroke="rgb(238,238,238)" stroke-width="1" opacity="1" d="M 228.5 67 L 229 78.5 L 228 78.5 L 228.5 67 Z " /><path fill="rgb(238,238,238)" stroke="rgb(238,238,238)" stroke-width="1" opacity="1" d="M 84.5 68 L 85 70.5 L 84 70.5 L 84.5 68 Z " /><path fill="rgb(238,238,238)" stroke="rgb(238,238,238)" stroke-width="1" opacity="1" d="M 318.5 68 L 319.5 70 L 318.5 68 Z " /><path fill="rgb(238,238,238)" stroke="rgb(238,238,238)" stroke-width="1" opacity="1" d="M 150.5 69 L 153 72.5 L 151 71.5 L 150.5 69 Z " /><path fill="rgb(238,238,238)" stroke="rgb(238,238,238)" stroke-width="1" opacity="1" d="M 155.5 69 L 156.5 71 L 155.5 69 Z " /><path fill="rgb(238,238,238)" stroke="rgb(238,238,238)" stroke-width="1" opacity="1" d="M 280.5 70 L 281 73.5 L 280 73.5 L 280.5 70 Z " /><path fill="rgb(238,238,238)" stroke="rgb(238,238,238)" stroke-width="1" opacity="1" d="M 291.5 71 L 294 78.5 L 293 78.5 L 291.5 71 Z " /><path fill="rgb(238,238,238)" stroke="rgb(238,238,238)" stroke-width="1" opacity="1" d="M 320.5 71 L 321.5 73 L 320.5 71 Z " /><path fill="rgb(238,238,238)" stroke="rgb(238,238,238)" stroke-width="1" opacity="1" d="M 325.5 71 L 328 74.5 L 326 73.5 L 325.5 71 Z " /><path fill="rgb(238,238,238)" stroke="rgb(238,238,238)" stroke-width="1" opacity="1" d="M 81.5 72 L 84 72.5 L 81 74 L 81.5 72 Z " /><path fill="rgb(238,238,238)" stroke="rgb(238,238,238)" stroke-width="1" opacity="1" d="M 153.5 74 L 156 77.5 L 154 76.5 L 153.5 74 Z " /><path fill="rgb(238,238,238)" stroke="rgb(238,238,238)" stroke-width="1" opacity="1" d="M 158.5 74 L 159.5 76 L 158.5 74 Z " /><path fill="rgb(238,238,238)" stroke="rgb(238,238,238)" stroke-width="1" opacity="1" d="M 323.5 76 L 324.5 78 L 323.5 76 Z " /><path fill="rgb(238,238,238)" stroke="rgb(238,238,238)" stroke-width="1" opacity="1" d="M 328.5 76 L 331 79.5 L 329 78.5 L 328.5 76 Z " /><path fill="rgb(238,238,238)" stroke="rgb(238,238,238)" stroke-width="1" opacity="1" d="M 79.5 77 L 80 79.5 L 79 79.5 L 79.5 77 Z " /><path fill="rgb(238,238,238)" stroke="rgb(238,238,238)" stroke-width="1" opacity="1" d="M 223.5 77 L 222.5 79 L 223.5 77 Z " /><path fill="rgb(238,238,238)" stroke="rgb(238,238,238)" stroke-width="1" opacity="1" d="M 257.5 77 L 256.5 79 L 257.5 77 Z " /><path fill="rgb(238,238,238)" stroke="rgb(238,238,238)" stroke-width="1" opacity="1" d="M 156.5 79 L 160 83.5 L 157 81.5 L 156.5 79 Z " /><path fill="rgb(238,238,238)" stroke="rgb(238,238,238)" stroke-width="1" opacity="1" d="M 161.5 79 L 163 82.5 L 161 83.5 L 162 80.5 L 161.5 79 Z " /><path fill="rgb(238,238,238)" stroke="rgb(238,238,238)" stroke-width="1" opacity="1" d="M 298.5 79 L 299 82.5 L 296.5 84 L 296.5 83 L 298 83 L 298.5 79 Z " /><path fill="rgb(238,238,238)" stroke="rgb(238,238,238)" stroke-width="1" opacity="1" d="M 347.5 79 L 347 80.5 L 347.5 83 L 356.5 83 L 356.5 84 L 347.5 84 L 346 82.5 L 347.5 79 Z " /><path fill="rgb(238,238,238)" stroke="rgb(238,238,238)" stroke-width="1" opacity="1" d="M 186.5 80 L 188 82.5 L 186 81.5 L 186.5 80 Z " /><path fill="rgb(238,238,238)" stroke="rgb(238,238,238)" stroke-width="1" opacity="1" d="M 238.5 80 L 239.5 82 L 238.5 80 Z " /><path fill="rgb(238,238,238)" stroke="rgb(238,238,238)" stroke-width="1" opacity="1" d="M 361.5 80 L 360.5 82 L 361.5 80 Z " /><path fill="rgb(238,238,238)" stroke="rgb(238,238,238)" stroke-width="1" opacity="1" d="M 326.5 81 L 328.5 84 L 326.5 81 Z " /><path fill="rgb(238,238,238)" stroke="rgb(238,238,238)" stroke-width="1" opacity="1" d="M 95.5 82 L 98 83.5 L 96.5 84 L 95.5 82 Z " /><path fill="rgb(238,238,238)" stroke="rgb(238,238,238)" stroke-width="1" opacity="1" d="M 108.5 82 L 109.5 83 L 129 83.5 L 109.5 84 L 108.5 82 Z " /><path fill="rgb(238,238,238)" stroke="rgb(238,238,238)" stroke-width="1" opacity="1" d="M 212.5 82 L 213.5 83 L 222 83.5 L 213.5 84 L 212.5 82 Z " /><path fill="rgb(238,238,238)" stroke="rgb(238,238,238)" stroke-width="1" opacity="1" d="M 271.5 82 L 270.5 84 L 269 83.5 L 271.5 82 Z " /><path fill="rgb(238,238,238)" stroke="rgb(238,238,238)" stroke-width="1" opacity="1" d="M 308.5 82 L 307.5 84 L 305 83.5 L 308.5 82 Z " /><path fill="rgb(238,238,238)" stroke="rgb(238,238,238)" stroke-width="1" opacity="1" d="M 338.5 82 L 340.5 83 L 342 82.5 L 339.5 84 L 338.5 82 Z " /><path fill="rgb(238,238,238)" stroke="rgb(238,238,238)" stroke-width="1" opacity="1" d="M 136.5 83 L 140 83.5 L 136.5 84 L 136.5 83 Z " /><path fill="rgb(238,238,238)" stroke="rgb(238,238,238)" stroke-width="1" opacity="1" d="M 189.5 83 L 192 83.5 L 189.5 84 L 189.5 83 Z " /><path fill="rgb(238,238,238)" stroke="rgb(238,238,238)" stroke-width="1" opacity="1" d="M 243.5 83 L 257 83.5 L 243.5 84 L 243.5 83 Z " /><path fill="rgb(34,33,32)" stroke="rgb(34,33,32)" stroke-width="1" opacity="1" d="M 90.5 45 L 88.5 48 L 90.5 45 Z " /><path fill="rgb(34,33,32)" stroke="rgb(34,33,32)" stroke-width="1" opacity="1" d="M 99.5 45 L 102 47.5 L 102 82.5 L 100 83.5 L 101 82.5 L 101 47.5 L 99.5 45 Z " /><path fill="rgb(34,33,32)" stroke="rgb(34,33,32)" stroke-width="1" opacity="1" d="M 168.5 45 L 167.5 47 L 168.5 45 Z " /><path fill="rgb(34,33,32)" stroke="rgb(34,33,32)" stroke-width="1" opacity="1" d="M 177.5 45 L 178.5 47 L 177.5 45 Z " /><path fill="rgb(34,33,32)" stroke="rgb(34,33,32)" stroke-width="1" opacity="1" d="M 288.5 45 L 289.5 47 L 288.5 45 Z " /><path fill="rgb(34,33,32)" stroke="rgb(34,33,32)" stroke-width="1" opacity="1" d="M 303.5 45 L 303 46.5 L 302.5 83 L 302 46.5 L 303.5 45 Z " /><path fill="rgb(34,33,32)" stroke="rgb(34,33,32)" stroke-width="1" opacity="1" d="M 130.5 46 L 131 48.5 L 130 48.5 L 130.5 46 Z " /><path fill="rgb(34,33,32)" stroke="rgb(34,33,32)" stroke-width="1" opacity="1" d="M 158.5 46 L 160.5 49 L 158.5 46 Z " /><path fill="rgb(34,33,32)" stroke="rgb(34,33,32)" stroke-width="1" opacity="1" d="M 238.5 46 L 237.5 48 L 238.5 46 Z " /><path fill="rgb(34,33,32)" stroke="rgb(34,33,32)" stroke-width="1" opacity="1" d="M 261.5 46 L 262.5 48 L 261.5 46 Z " /><path fill="rgb(34,33,32)" stroke="rgb(34,33,32)" stroke-width="1" opacity="1" d="M 327.5 46 L 331 50.5 L 331 62.5 L 330 62.5 Q 331.9 49.9 327.5 46 Z " /><path fill="rgb(34,33,32)" stroke="rgb(34,33,32)" stroke-width="1" opacity="1" d="M 363.5 48 L 365 49.5 L 365 79.5 L 363 80.5 L 364 79.5 L 364 49.5 L 363.5 48 Z " /><path fill="rgb(34,33,32)" stroke="rgb(34,33,32)" stroke-width="1" opacity="1" d="M 115.5 50 L 129 50.5 L 115 51 L 115 78 L 128.5 78 L 128.5 79 L 114 79 L 114 51.5 L 115.5 50 Z " /><path fill="rgb(34,33,32)" stroke="rgb(34,33,32)" stroke-width="1" opacity="1" d="M 143.5 50 L 151 50.5 L 143 51 L 142.5 64 L 142 51.5 L 143.5 50 Z " /><path fill="rgb(34,33,32)" stroke="rgb(34,33,32)" stroke-width="1" opacity="1" d="M 161.5 50 L 162 62.5 L 161 62.5 L 161.5 50 Z " /><path fill="rgb(34,33,32)" stroke="rgb(34,33,32)" stroke-width="1" opacity="1" d="M 210.5 50 L 219 50.5 L 210.5 51 L 210.5 50 Z " /><path fill="rgb(34,33,32)" stroke="rgb(34,33,32)" stroke-width="1" opacity="1" d="M 246.5 50 L 254 50.5 L 246.5 51 L 246.5 50 Z " /><path fill="rgb(34,33,32)" stroke="rgb(34,33,32)" stroke-width="1" opacity="1" d="M 312.5 50 L 320 50.5 L 312 51 L 311.5 63 L 311 51.5 L 312.5 50 Z " /><path fill="rgb(34,33,32)" stroke="rgb(34,33,32)" stroke-width="1" opacity="1" d="M 345.5 50 L 354 50.5 L 345 51 L 344.5 79 L 344 51.5 L 345.5 50 Z " /><path fill="rgb(34,33,32)" stroke="rgb(34,33,32)" stroke-width="1" opacity="1" d="M 77.5 51 L 79 56.5 L 78 56.5 L 77.5 51 Z " /><path fill="rgb(34,33,32)" stroke="rgb(34,33,32)" stroke-width="1" opacity="1" d="M 229.5 51 L 230 60.5 L 229 60.5 L 229.5 51 Z " /><path fill="rgb(34,33,32)" stroke="rgb(34,33,32)" stroke-width="1" opacity="1" d="M 235.5 51 L 236 77.5 L 235 77.5 L 235.5 51 Z " /><path fill="rgb(34,33,32)" stroke="rgb(34,33,32)" stroke-width="1" opacity="1" d="M 264.5 52 L 265 76.5 L 264 76.5 L 264.5 52 Z " /><path fill="rgb(34,33,32)" stroke="rgb(34,33,32)" stroke-width="1" opacity="1" d="M 283.5 54 L 284 55.5 L 282 56.5 L 283.5 54 Z " /><path fill="rgb(34,33,32)" stroke="rgb(34,33,32)" stroke-width="1" opacity="1" d="M 175.5 58 L 176 81.5 L 175 81.5 L 175.5 58 Z " /><path fill="rgb(34,33,32)" stroke="rgb(34,33,32)" stroke-width="1" opacity="1" d="M 117.5 60 L 116.5 62 L 117.5 60 Z " /><path fill="rgb(34,33,32)" stroke="rgb(34,33,32)" stroke-width="1" opacity="1" d="M 80.5 61 L 81 63.5 L 80 63.5 L 80.5 61 Z " /><path fill="rgb(34,33,32)" stroke="rgb(34,33,32)" stroke-width="1" opacity="1" d="M 152.5 61 L 151.5 63 L 152.5 61 Z " /><path fill="rgb(34,33,32)" stroke="rgb(34,33,32)" stroke-width="1" opacity="1" d="M 126.5 62 L 127 65.5 L 126 65.5 L 126.5 62 Z " /><path fill="rgb(34,33,32)" stroke="rgb(34,33,32)" stroke-width="1" opacity="1" d="M 228.5 62 L 227.5 64 L 228.5 62 Z " /><path fill="rgb(34,33,32)" stroke="rgb(34,33,32)" stroke-width="1" opacity="1" d="M 160.5 64 L 158.5 67 L 160.5 64 Z " /><path fill="rgb(34,33,32)" stroke="rgb(34,33,32)" stroke-width="1" opacity="1" d="M 329.5 64 L 327.5 67 L 329.5 64 Z " /><path fill="rgb(34,33,32)" stroke="rgb(34,33,32)" stroke-width="1" opacity="1" d="M 116.5 66 L 117.5 68 L 116.5 66 Z " /><path fill="rgb(34,33,32)" stroke="rgb(34,33,32)" stroke-width="1" opacity="1" d="M 287.5 66 L 288 67.5 L 287.5 69 Q 290.1 68.2 289 71.5 L 290 73.5 L 288 72.5 L 286 68.5 L 287.5 66 Z " /><path fill="rgb(34,33,32)" stroke="rgb(34,33,32)" stroke-width="1" opacity="1" d="M 90.5 67 L 91 69.5 L 89.5 73 L 89 70.5 L 90.5 67 Z " /><path fill="rgb(34,33,32)" stroke="rgb(34,33,32)" stroke-width="1" opacity="1" d="M 230.5 67 L 231 77.5 L 230 77.5 L 230.5 67 Z " /><path fill="rgb(34,33,32)" stroke="rgb(34,33,32)" stroke-width="1" opacity="1" d="M 142.5 68 L 143 82.5 L 142 82.5 L 142.5 68 Z " /><path fill="rgb(34,33,32)" stroke="rgb(34,33,32)" stroke-width="1" opacity="1" d="M 278 68 L 280 68.5 Q 277.8 69.8 279 74.5 L 279.5 76 L 277 71.5 L 278 68 Z " /><path fill="rgb(34,33,32)" stroke="rgb(34,33,32)" stroke-width="1" opacity="1" d="M 311.5 68 L 312 81.5 L 311 81.5 L 311.5 68 Z " /><path fill="rgb(34,33,32)" stroke="rgb(34,33,32)" stroke-width="1" opacity="1" d="M 326.5 69 L 327.5 71 L 326.5 69 Z " /><path fill="rgb(34,33,32)" stroke="rgb(34,33,32)" stroke-width="1" opacity="1" d="M 317.5 70 L 318.5 72 L 317.5 70 Z " /><path fill="rgb(34,33,32)" stroke="rgb(34,33,32)" stroke-width="1" opacity="1" d="M 159.5 72 L 160.5 74 L 159.5 72 Z " /><path fill="rgb(34,33,32)" stroke="rgb(34,33,32)" stroke-width="1" opacity="1" d="M 88.5 74 L 89 76.5 L 87.5 80 L 87 77.5 L 88.5 74 Z " /><path fill="rgb(34,33,32)" stroke="rgb(34,33,32)" stroke-width="1" opacity="1" d="M 287.5 74 L 286.5 76 L 287.5 74 Z " /><path fill="rgb(34,33,32)" stroke="rgb(34,33,32)" stroke-width="1" opacity="1" d="M 329.5 74 L 330.5 76 L 329.5 74 Z " /><path fill="rgb(34,33,32)" stroke="rgb(34,33,32)" stroke-width="1" opacity="1" d="M 320.5 75 L 321.5 77 L 320.5 75 Z " /><path fill="rgb(34,33,32)" stroke="rgb(34,33,32)" stroke-width="1" opacity="1" d="M 162.5 77 L 163.5 79 L 162.5 77 Z " /><path fill="rgb(34,33,32)" stroke="rgb(34,33,32)" stroke-width="1" opacity="1" d="M 212.5 78 L 220 78.5 L 212.5 79 L 212.5 78 Z " /><path fill="rgb(34,33,32)" stroke="rgb(34,33,32)" stroke-width="1" opacity="1" d="M 245.5 78 L 254 78.5 L 245.5 79 L 245.5 78 Z " /><path fill="rgb(34,33,32)" stroke="rgb(34,33,32)" stroke-width="1" opacity="1" d="M 346.5 78 L 354 78.5 L 346.5 79 L 346.5 78 Z " /><path fill="rgb(34,33,32)" stroke="rgb(34,33,32)" stroke-width="1" opacity="1" d="M 332.5 79 L 334 82.5 L 333 82.5 L 332.5 79 Z " /><path fill="rgb(34,33,32)" stroke="rgb(34,33,32)" stroke-width="1" opacity="1" d="M 131.5 80 L 132 82.5 L 131 82.5 L 131.5 80 Z " /><path fill="rgb(34,33,32)" stroke="rgb(34,33,32)" stroke-width="1" opacity="1" d="M 229.5 80 L 228.5 82 L 229.5 80 Z " /><path fill="rgb(34,33,32)" stroke="rgb(34,33,32)" stroke-width="1" opacity="1" d="M 263.5 80 L 261.5 83 L 263.5 80 Z " /><path fill="rgb(34,33,32)" stroke="rgb(34,33,32)" stroke-width="1" opacity="1" d="M 265.5 80 L 267 83.5 L 265 82.5 L 265.5 80 Z " /><path fill="rgb(34,33,32)" stroke="rgb(34,33,32)" stroke-width="1" opacity="1" d="M 323.5 80 L 324.5 82 L 323.5 80 Z " /><path fill="rgb(34,33,32)" stroke="rgb(34,33,32)" stroke-width="1" opacity="1" d="M 86.5 81 L 87 82.5 L 85 83.5 L 86.5 81 Z " /><path fill="rgb(34,33,32)" stroke="rgb(34,33,32)" stroke-width="1" opacity="1" d="M 292.5 81 L 294 83.5 L 292 82.5 L 292.5 81 Z " /><path fill="rgb(34,33,32)" stroke="rgb(34,33,32)" stroke-width="1" opacity="1" d="M 361.5 82 L 360.5 84 L 361.5 82 Z " /><path fill="rgb(34,33,32)" stroke="rgb(34,33,32)" stroke-width="1" opacity="1" d="M 310.5 83 L 309.5 85 L 310.5 83 Z " /><path fill="rgb(34,33,32)" stroke="rgb(34,33,32)" stroke-width="1" opacity="1" d="M 325.5 83 L 326.5 85 L 325.5 83 Z " /><path fill="rgb(188,187,187)" stroke="rgb(188,187,187)" stroke-width="1" opacity="1" d="M 92.5 45 L 94 45.5 L 90 48.5 L 89.5 51 L 89 48.5 L 92.5 45 Z " /><path fill="rgb(188,187,187)" stroke="rgb(188,187,187)" stroke-width="1" opacity="1" d="M 108.5 45 L 108 46.5 L 108 82.5 L 109 83.5 L 107 82.5 L 107 46.5 L 108.5 45 Z " /><path fill="rgb(188,187,187)" stroke="rgb(188,187,187)" stroke-width="1" opacity="1" d="M 127.5 45 Q 129.8 44.3 129 46.5 L 127.5 45 Z " /><path fill="rgb(188,187,187)" stroke="rgb(188,187,187)" stroke-width="1" opacity="1" d="M 136.5 45 L 136 46.5 L 135.5 84 L 135 46.5 L 136.5 45 Z " /><path fill="rgb(188,187,187)" stroke="rgb(188,187,187)" stroke-width="1" opacity="1" d="M 170.5 45 L 172 45.5 L 169 47.5 L 169 82.5 L 170 83.5 L 168 82.5 L 168 47.5 L 170.5 45 Z " /><path fill="rgb(188,187,187)" stroke="rgb(188,187,187)" stroke-width="1" opacity="1" d="M 191.5 45 L 190.5 47 L 191.5 45 Z " /><path fill="rgb(188,187,187)" stroke="rgb(188,187,187)" stroke-width="1" opacity="1" d="M 194.5 45 L 196 46.5 L 196 81.5 L 195 81.5 L 195 46.5 L 194.5 45 Z " /><path fill="rgb(188,187,187)" stroke="rgb(188,187,187)" stroke-width="1" opacity="1" d="M 204.5 45 L 204 46.5 L 204 82.5 L 205 83.5 L 203 82.5 L 203 46.5 L 204.5 45 Z " /><path fill="rgb(188,187,187)" stroke="rgb(188,187,187)" stroke-width="1" opacity="1" d="M 279.5 45 L 278.5 47 L 279.5 45 Z " /><path fill="rgb(188,187,187)" stroke="rgb(188,187,187)" stroke-width="1" opacity="1" d="M 286.5 45 L 289 48.5 L 288 48.5 L 286.5 45 Z " /><path fill="rgb(188,187,187)" stroke="rgb(188,187,187)" stroke-width="1" opacity="1" d="M 305.5 45 L 305 46.5 L 304.5 84 L 304 46.5 L 305.5 45 Z " /><path fill="rgb(188,187,187)" stroke="rgb(188,187,187)" stroke-width="1" opacity="1" d="M 338.5 45 L 338 46.5 L 338 82.5 L 339 83.5 L 337 82.5 L 337 46.5 L 338.5 45 Z " /><path fill="rgb(188,187,187)" stroke="rgb(188,187,187)" stroke-width="1" opacity="1" d="M 65.5 46 L 65 47.5 L 65 82.5 L 66 83.5 L 64 82.5 L 64 47.5 L 65.5 46 Z " /><path fill="rgb(188,187,187)" stroke="rgb(188,187,187)" stroke-width="1" opacity="1" d="M 73.5 46 L 75 48.5 L 74 48.5 L 73.5 46 Z " /><path fill="rgb(188,187,187)" stroke="rgb(188,187,187)" stroke-width="1" opacity="1" d="M 259.5 46 Q 263.5 46.5 263 51.5 L 262 51.5 L 259.5 46 Z " /><path fill="rgb(188,187,187)" stroke="rgb(188,187,187)" stroke-width="1" opacity="1" d="M 325.5 46 Q 329.5 46.5 329 51.5 L 328 51.5 L 325.5 46 Z " /><path fill="rgb(188,187,187)" stroke="rgb(188,187,187)" stroke-width="1" opacity="1" d="M 99.5 47 L 100 82.5 L 98 83.5 L 99 82.5 L 99.5 47 Z " /><path fill="rgb(188,187,187)" stroke="rgb(188,187,187)" stroke-width="1" opacity="1" d="M 158.5 48 L 160 50.5 L 159 50.5 L 158.5 48 Z " /><path fill="rgb(188,187,187)" stroke="rgb(188,187,187)" stroke-width="1" opacity="1" d="M 112.5 50 L 113 78.5 L 112 78.5 L 112.5 50 Z " /><path fill="rgb(188,187,187)" stroke="rgb(188,187,187)" stroke-width="1" opacity="1" d="M 255.5 50 L 258 52.5 L 258 76.5 L 255 78.5 L 257 76.5 L 257 52.5 L 255.5 50 Z " /><path fill="rgb(188,187,187)" stroke="rgb(188,187,187)" stroke-width="1" opacity="1" d="M 309.5 50 L 310 82.5 L 308 83.5 L 309 82.5 L 309.5 50 Z " /><path fill="rgb(188,187,187)" stroke="rgb(188,187,187)" stroke-width="1" opacity="1" d="M 321.5 50 Q 326 52 324 60.5 L 323 60.5 Q 324.2 52 321.5 50 Z " /><path fill="rgb(188,187,187)" stroke="rgb(188,187,187)" stroke-width="1" opacity="1" d="M 356.5 50 L 358 51.5 L 358 77.5 L 356 78.5 L 357 77.5 L 357 51.5 L 356.5 50 Z " /><path fill="rgb(188,187,187)" stroke="rgb(188,187,187)" stroke-width="1" opacity="1" d="M 140.5 51 L 141 82.5 L 140 82.5 L 140.5 51 Z " /><path fill="rgb(188,187,187)" stroke="rgb(188,187,187)" stroke-width="1" opacity="1" d="M 283.5 51 L 285 52.5 L 291 72.5 L 290 72.5 L 284 53 L 282 52.5 L 283.5 51 Z " /><path fill="rgb(188,187,187)" stroke="rgb(188,187,187)" stroke-width="1" opacity="1" d="M 154.5 52 L 155 60.5 L 154 60.5 L 154.5 52 Z " /><path fill="rgb(188,187,187)" stroke="rgb(188,187,187)" stroke-width="1" opacity="1" d="M 222.5 52 L 223 59.5 L 221 60.5 L 222.5 52 Z " /><path fill="rgb(188,187,187)" stroke="rgb(188,187,187)" stroke-width="1" opacity="1" d="M 228.5 52 L 229 58.5 L 228 58.5 L 228.5 52 Z " /><path fill="rgb(188,187,187)" stroke="rgb(188,187,187)" stroke-width="1" opacity="1" d="M 236.5 52 L 237 76.5 L 236 76.5 L 236.5 52 Z " /><path fill="rgb(188,187,187)" stroke="rgb(188,187,187)" stroke-width="1" opacity="1" d="M 242.5 52 L 243 77.5 L 244 78.5 L 242 77.5 L 242.5 52 Z " /><path fill="rgb(188,187,187)" stroke="rgb(188,187,187)" stroke-width="1" opacity="1" d="M 363.5 52 L 364 76.5 L 363 76.5 L 363.5 52 Z " /><path fill="rgb(188,187,187)" stroke="rgb(188,187,187)" stroke-width="1" opacity="1" d="M 76.5 53 L 77 55.5 L 76 55.5 L 76.5 53 Z " /><path fill="rgb(188,187,187)" stroke="rgb(188,187,187)" stroke-width="1" opacity="1" d="M 87.5 55 L 88 57.5 L 87 57.5 L 87.5 55 Z " /><path fill="rgb(188,187,187)" stroke="rgb(188,187,187)" stroke-width="1" opacity="1" d="M 70 56 L 73 57.5 L 74 62.5 L 73 62.5 L 71.5 57 L 70.5 82 L 70 56 Z " /><path fill="rgb(188,187,187)" stroke="rgb(188,187,187)" stroke-width="1" opacity="1" d="M 93.5 56 L 95 57.5 L 95 82.5 L 96 83.5 L 94 82.5 L 93.5 57 L 92 57.5 L 93.5 56 Z " /><path fill="rgb(188,187,187)" stroke="rgb(188,187,187)" stroke-width="1" opacity="1" d="M 176.5 57 L 178 60.5 L 177 60.5 L 176.5 57 Z " /><path fill="rgb(188,187,187)" stroke="rgb(188,187,187)" stroke-width="1" opacity="1" d="M 119.5 60 L 118 62.5 Q 117.3 66.8 120 67.5 L 117 65.5 Q 116.3 60.8 119.5 60 Z " /><path fill="rgb(188,187,187)" stroke="rgb(188,187,187)" stroke-width="1" opacity="1" d="M 214.5 60 L 213 62.5 Q 212.3 66.8 215 67.5 L 212 65.5 Q 211.3 60.8 214.5 60 Z " /><path fill="rgb(188,187,187)" stroke="rgb(188,187,187)" stroke-width="1" opacity="1" d="M 328.5 61 L 329 63.5 L 327 64.5 L 328.5 61 Z " /><path fill="rgb(188,187,187)" stroke="rgb(188,187,187)" stroke-width="1" opacity="1" d="M 85.5 62 L 86 64.5 L 85 64.5 L 85.5 62 Z " /><path fill="rgb(188,187,187)" stroke="rgb(188,187,187)" stroke-width="1" opacity="1" d="M 178.5 62 L 180 65.5 L 179 65.5 L 178.5 62 Z " /><path fill="rgb(188,187,187)" stroke="rgb(188,187,187)" stroke-width="1" opacity="1" d="M 79.5 63 L 80 65.5 L 79 65.5 L 79.5 63 Z " /><path fill="rgb(188,187,187)" stroke="rgb(188,187,187)" stroke-width="1" opacity="1" d="M 144.5 63 L 144 64.5 L 143.5 67 L 143 64.5 L 144.5 63 Z " /><path fill="rgb(188,187,187)" stroke="rgb(188,187,187)" stroke-width="1" opacity="1" d="M 313.5 63 L 313 64.5 L 312.5 67 L 312 64.5 L 313.5 63 Z " /><path fill="rgb(188,187,187)" stroke="rgb(188,187,187)" stroke-width="1" opacity="1" d="M 226.5 64 L 228.5 67 L 226.5 64 Z " /><path fill="rgb(188,187,187)" stroke="rgb(188,187,187)" stroke-width="1" opacity="1" d="M 89.5 65 L 90 67.5 L 89 67.5 L 89.5 65 Z " /><path fill="rgb(188,187,187)" stroke="rgb(188,187,187)" stroke-width="1" opacity="1" d="M 124.5 66 L 123.5 68 L 124.5 66 Z " /><path fill="rgb(188,187,187)" stroke="rgb(188,187,187)" stroke-width="1" opacity="1" d="M 156.5 66 L 156 67.5 L 157 69.5 L 155 68.5 L 156.5 66 Z " /><path fill="rgb(188,187,187)" stroke="rgb(188,187,187)" stroke-width="1" opacity="1" d="M 325.5 66 L 325 67.5 L 324.5 69 L 324 67.5 L 325.5 66 Z " /><path fill="rgb(188,187,187)" stroke="rgb(188,187,187)" stroke-width="1" opacity="1" d="M 180.5 67 L 182 70.5 L 181 70.5 L 180.5 67 Z " /><path fill="rgb(188,187,187)" stroke="rgb(188,187,187)" stroke-width="1" opacity="1" d="M 149.5 68 L 151 70.5 L 149 69.5 L 149.5 68 Z " /><path fill="rgb(188,187,187)" stroke="rgb(188,187,187)" stroke-width="1" opacity="1" d="M 223.5 68 L 224 76.5 L 223 76.5 L 223.5 68 Z " /><path fill="rgb(188,187,187)" stroke="rgb(188,187,187)" stroke-width="1" opacity="1" d="M 281.5 68 L 280 70.5 Q 279.3 74.8 282 75.5 L 279 73.5 Q 278.3 68.8 281.5 68 Z " /><path fill="rgb(188,187,187)" stroke="rgb(188,187,187)" stroke-width="1" opacity="1" d="M 83.5 69 L 84 71.5 Q 82.5 74.5 81 71.5 L 81.5 70 L 83 70.5 L 83.5 69 Z " /><path fill="rgb(188,187,187)" stroke="rgb(188,187,187)" stroke-width="1" opacity="1" d="M 229.5 69 L 230 76.5 L 229 76.5 L 229.5 69 Z " /><path fill="rgb(188,187,187)" stroke="rgb(188,187,187)" stroke-width="1" opacity="1" d="M 270.5 69 L 271 71.5 L 270 71.5 L 270.5 69 Z " /><path fill="rgb(188,187,187)" stroke="rgb(188,187,187)" stroke-width="1" opacity="1" d="M 318.5 69 L 319.5 71 L 318.5 69 Z " /><path fill="rgb(188,187,187)" stroke="rgb(188,187,187)" stroke-width="1" opacity="1" d="M 286.5 70 L 287 73.5 L 286 73.5 L 286.5 70 Z " /><path fill="rgb(188,187,187)" stroke="rgb(188,187,187)" stroke-width="1" opacity="1" d="M 325.5 70 L 326.5 72 L 325.5 70 Z " /><path fill="rgb(188,187,187)" stroke="rgb(188,187,187)" stroke-width="1" opacity="1" d="M 151.5 72 L 154 75.5 L 152 74.5 L 151.5 72 Z " /><path fill="rgb(188,187,187)" stroke="rgb(188,187,187)" stroke-width="1" opacity="1" d="M 182.5 72 L 184 75.5 L 183 75.5 L 182.5 72 Z " /><path fill="rgb(188,187,187)" stroke="rgb(188,187,187)" stroke-width="1" opacity="1" d="M 320.5 72 L 323 75.5 L 321 74.5 L 320.5 72 Z " /><path fill="rgb(188,187,187)" stroke="rgb(188,187,187)" stroke-width="1" opacity="1" d="M 77.5 73 L 79 78.5 L 78 78.5 L 77.5 73 Z " /><path fill="rgb(188,187,187)" stroke="rgb(188,187,187)" stroke-width="1" opacity="1" d="M 158.5 73 L 159.5 75 L 158.5 73 Z " /><path fill="rgb(188,187,187)" stroke="rgb(188,187,187)" stroke-width="1" opacity="1" d="M 86.5 75 L 87 77.5 L 86 77.5 L 86.5 75 Z " /><path fill="rgb(188,187,187)" stroke="rgb(188,187,187)" stroke-width="1" opacity="1" d="M 328.5 75 L 329.5 77 L 328.5 75 Z " /><path fill="rgb(188,187,187)" stroke="rgb(188,187,187)" stroke-width="1" opacity="1" d="M 154.5 77 L 157 80.5 L 155 79.5 L 154.5 77 Z " /><path fill="rgb(188,187,187)" stroke="rgb(188,187,187)" stroke-width="1" opacity="1" d="M 184.5 77 L 186 80.5 L 185 80.5 L 184.5 77 Z " /><path fill="rgb(188,187,187)" stroke="rgb(188,187,187)" stroke-width="1" opacity="1" d="M 262.5 77 L 263 79.5 L 259 82.5 L 262.5 77 Z " /><path fill="rgb(188,187,187)" stroke="rgb(188,187,187)" stroke-width="1" opacity="1" d="M 292.5 77 L 296 83.5 L 293 81.5 L 292.5 77 Z " /><path fill="rgb(188,187,187)" stroke="rgb(188,187,187)" stroke-width="1" opacity="1" d="M 323.5 77 L 326 80.5 L 324 79.5 L 323.5 77 Z " /><path fill="rgb(188,187,187)" stroke="rgb(188,187,187)" stroke-width="1" opacity="1" d="M 161.5 78 L 162.5 80 L 161.5 78 Z " /><path fill="rgb(188,187,187)" stroke="rgb(188,187,187)" stroke-width="1" opacity="1" d="M 330.5 78 L 332 80.5 L 331 80.5 L 330.5 78 Z " /><path fill="rgb(188,187,187)" stroke="rgb(188,187,187)" stroke-width="1" opacity="1" d="M 129.5 79 L 130 82.5 L 129 82.5 L 129.5 79 Z " /><path fill="rgb(188,187,187)" stroke="rgb(188,187,187)" stroke-width="1" opacity="1" d="M 346.5 79 L 346 80.5 L 347 83.5 L 345 82.5 L 346.5 79 Z " /><path fill="rgb(188,187,187)" stroke="rgb(188,187,187)" stroke-width="1" opacity="1" d="M 211.5 80 L 213 83.5 L 211 82.5 L 211.5 80 Z " /><path fill="rgb(188,187,187)" stroke="rgb(188,187,187)" stroke-width="1" opacity="1" d="M 299.5 80 L 300 82.5 L 298 83.5 L 299.5 80 Z " /><path fill="rgb(188,187,187)" stroke="rgb(188,187,187)" stroke-width="1" opacity="1" d="M 226.5 81 L 225.5 83 L 226.5 81 Z " /><path fill="rgb(188,187,187)" stroke="rgb(188,187,187)" stroke-width="1" opacity="1" d="M 272.5 81 L 273 82.5 L 271 83.5 L 272.5 81 Z " /><path fill="rgb(188,187,187)" stroke="rgb(188,187,187)" stroke-width="1" opacity="1" d="M 342.5 81 L 343 82.5 L 341 83.5 L 342.5 81 Z " /><path fill="rgb(188,187,187)" stroke="rgb(188,187,187)" stroke-width="1" opacity="1" d="M 84.5 82 L 83.5 84 L 84.5 82 Z " /><path fill="rgb(188,187,187)" stroke="rgb(188,187,187)" stroke-width="1" opacity="1" d="M 157.5 82 L 161 84.5 L 159.5 85 L 157.5 82 Z " /><path fill="rgb(188,187,187)" stroke="rgb(188,187,187)" stroke-width="1" opacity="1" d="M 173.5 82 L 172.5 84 L 173.5 82 Z " /><path fill="rgb(188,187,187)" stroke="rgb(188,187,187)" stroke-width="1" opacity="1" d="M 208.5 82 L 207.5 84 L 208.5 82 Z " /><path fill="rgb(188,187,187)" stroke="rgb(188,187,187)" stroke-width="1" opacity="1" d="M 267.5 82 L 268.5 84 L 267.5 82 Z " /><path fill="rgb(188,187,187)" stroke="rgb(188,187,187)" stroke-width="1" opacity="1" d="M 326.5 82 L 330 84.5 L 328.5 85 L 326.5 82 Z " /><path fill="rgb(29,183,83)" stroke="rgb(29,183,83)" stroke-width="1" opacity="1" d="M 16 23 L 70.5 23 L 72 24.5 L 70.5 26 L 16 26 L 16 23 Z " /><path fill="rgb(29,183,83)" stroke="rgb(29,183,83)" stroke-width="1" opacity="1" d="M 79 23 L 88.5 23 L 89 26 L 79.5 26 L 79 23 Z " /><path fill="rgb(29,183,83)" stroke="rgb(29,183,83)" stroke-width="1" opacity="1" d="M 97 23 L 151.5 23 L 152 26 L 97.5 26 L 97 23 Z " /><path fill="rgb(29,183,83)" stroke="rgb(29,183,83)" stroke-width="1" opacity="1" d="M 160.5 23 L 169.5 23 L 170 26 L 160.5 26 L 159 24.5 L 160.5 23 Z " /><path fill="rgb(29,183,83)" stroke="rgb(29,183,83)" stroke-width="1" opacity="1" d="M 178.5 23 L 232.5 23 L 233 26 L 178.5 26 L 177 24.5 L 178.5 23 Z " /><path fill="rgb(29,183,83)" stroke="rgb(29,183,83)" stroke-width="1" opacity="1" d="M 240 23 L 249.5 23 L 251 24.5 L 249.5 26 L 240 26 L 240 23 Z " /><path fill="rgb(29,183,83)" stroke="rgb(29,183,83)" stroke-width="1" opacity="1" d="M 258 23 L 312.5 23 L 313 26 L 258.5 26 L 258 23 Z " /><path fill="rgb(29,183,83)" stroke="rgb(29,183,83)" stroke-width="1" opacity="1" d="M 321 23 L 330.5 23 L 331 26 L 321.5 26 L 321 23 Z " /><path fill="rgb(29,183,83)" stroke="rgb(29,183,83)" stroke-width="1" opacity="1" d="M 339 23 L 393.5 23 L 394 26 L 339.5 26 L 339 23 Z " /><path fill="rgb(29,183,83)" stroke="rgb(29,183,83)" stroke-width="1" opacity="1" d="M 402.5 23 L 410.5 23 L 412 24.5 L 410.5 26 L 402.5 26 Q 399.5 24.5 402.5 23 Z " /><path fill="rgb(29,183,83)" stroke="rgb(29,183,83)" stroke-width="1" opacity="1" d="M 16 106 L 70.5 106 L 72 107.5 L 70.5 109 L 16 109 L 16 106 Z " /><path fill="rgb(29,183,83)" stroke="rgb(29,183,83)" stroke-width="1" opacity="1" d="M 79 106 L 88.5 106 L 89 109 L 79.5 109 L 79 106 Z " /><path fill="rgb(29,183,83)" stroke="rgb(29,183,83)" stroke-width="1" opacity="1" d="M 97 106 L 151.5 106 L 152 109 L 97.5 109 L 97 106 Z " /><path fill="rgb(29,183,83)" stroke="rgb(29,183,83)" stroke-width="1" opacity="1" d="M 160.5 106 L 169.5 106 L 170 109 L 160.5 109 L 159 107.5 L 160.5 106 Z " /><path fill="rgb(29,183,83)" stroke="rgb(29,183,83)" stroke-width="1" opacity="1" d="M 178.5 106 L 232.5 106 L 233 109 L 177.5 109 L 177 107.5 L 178.5 106 Z " /><path fill="rgb(29,183,83)" stroke="rgb(29,183,83)" stroke-width="1" opacity="1" d="M 240 106 L 249.5 106 L 251 107.5 L 249.5 109 L 240 109 L 240 106 Z " /><path fill="rgb(29,183,83)" stroke="rgb(29,183,83)" stroke-width="1" opacity="1" d="M 258 106 L 312.5 106 L 313 109 L 258.5 109 L 258 106 Z " /><path fill="rgb(29,183,83)" stroke="rgb(29,183,83)" stroke-width="1" opacity="1" d="M 321 106 L 330.5 106 L 331 109 L 321.5 109 L 321 106 Z " /><path fill="rgb(29,183,83)" stroke="rgb(29,183,83)" stroke-width="1" opacity="1" d="M 339 106 L 393.5 106 L 394 109 L 339.5 109 L 339 106 Z " /><path fill="rgb(29,183,83)" stroke="rgb(29,183,83)" stroke-width="1" opacity="1" d="M 402.5 106 L 410.5 106 L 412 107.5 L 411.5 109 L 402.5 109 Q 399.5 107.5 402.5 106 Z " /><path fill="rgb(27,149,69)" stroke="rgb(27,149,69)" stroke-width="1" opacity="1" d="M 16.5 22 L 70.5 22 L 72 23.5 L 70.5 23 L 16.5 23 L 16.5 22 Z " /><path fill="rgb(27,149,69)" stroke="rgb(27,149,69)" stroke-width="1" opacity="1" d="M 79.5 22 L 88.5 22 L 90 23.5 L 88.5 27 L 79.5 27 L 78 25.5 L 79.5 22 Z M 79 23 L 80 26 L 89 26 L 89 23 L 79 23 Z " /><path fill="rgb(27,149,69)" stroke="rgb(27,149,69)" stroke-width="1" opacity="1" d="M 97.5 22 L 151.5 22 L 153 23.5 L 151.5 27 L 97.5 27 L 96 25.5 L 97.5 22 Z M 97 23 L 98 26 L 152 26 L 152 23 L 97 23 Z " /><path fill="rgb(27,149,69)" stroke="rgb(27,149,69)" stroke-width="1" opacity="1" d="M 160.5 22 L 170 22.5 L 160.5 23 L 159.5 24 L 160.5 22 Z " /><path fill="rgb(27,149,69)" stroke="rgb(27,149,69)" stroke-width="1" opacity="1" d="M 178.5 22 L 233 22.5 L 178.5 23 L 177.5 24 L 178.5 22 Z " /><path fill="rgb(27,149,69)" stroke="rgb(27,149,69)" stroke-width="1" opacity="1" d="M 240.5 22 L 249.5 22 L 251 23.5 L 249.5 23 L 240.5 23 L 240.5 22 Z " /><path fill="rgb(27,149,69)" stroke="rgb(27,149,69)" stroke-width="1" opacity="1" d="M 258.5 22 L 312.5 22 L 314 23.5 L 312.5 27 L 258.5 27 L 257 25.5 L 258.5 22 Z M 258 23 L 259 26 L 313 26 L 313 23 L 258 23 Z " /><path fill="rgb(27,149,69)" stroke="rgb(27,149,69)" stroke-width="1" opacity="1" d="M 321.5 22 L 330.5 22 L 332 23.5 L 330.5 27 L 321.5 27 L 320 25.5 L 321.5 22 Z M 321 23 L 322 26 L 331 26 L 331 23 L 321 23 Z " /><path fill="rgb(27,149,69)" stroke="rgb(27,149,69)" stroke-width="1" opacity="1" d="M 339.5 22 L 393.5 22 L 395 23.5 L 394.5 25 L 394 23 L 339.5 23 L 339 26 L 394 26.5 L 339.5 27 L 338 23.5 L 339.5 22 Z " /><path fill="rgb(27,149,69)" stroke="rgb(27,149,69)" stroke-width="1" opacity="1" d="M 402.5 22 L 410.5 22 L 412 23.5 L 410.5 23 L 402.5 23 L 401.5 24 L 402.5 22 Z " /><path fill="rgb(27,149,69)" stroke="rgb(27,149,69)" stroke-width="1" opacity="1" d="M 71.5 25 L 70.5 27 L 16 26.5 L 70.5 26 L 71.5 25 Z " /><path fill="rgb(27,149,69)" stroke="rgb(27,149,69)" stroke-width="1" opacity="1" d="M 159.5 25 L 160.5 26 L 170 26.5 L 160.5 27 L 159.5 25 Z " /><path fill="rgb(27,149,69)" stroke="rgb(27,149,69)" stroke-width="1" opacity="1" d="M 177.5 25 L 178.5 26 L 233 26.5 L 177 27 L 177.5 25 Z " /><path fill="rgb(27,149,69)" stroke="rgb(27,149,69)" stroke-width="1" opacity="1" d="M 250.5 25 L 249.5 27 L 240 26.5 L 249.5 26 L 250.5 25 Z " /><path fill="rgb(27,149,69)" stroke="rgb(27,149,69)" stroke-width="1" opacity="1" d="M 401.5 25 L 402.5 26 L 410.5 26 L 412 25.5 L 410.5 27 L 402.5 27 L 401.5 25 Z " /><path fill="rgb(27,149,69)" stroke="rgb(27,149,69)" stroke-width="1" opacity="1" d="M 17.5 105 L 70.5 105 L 72 106.5 L 70.5 106 L 17.5 106 L 17.5 105 Z " /><path fill="rgb(27,149,69)" stroke="rgb(27,149,69)" stroke-width="1" opacity="1" d="M 80.5 105 L 88.5 105 L 90 106.5 L 88.5 110 L 79.5 110 L 78 108.5 L 78.5 107 L 79 109 L 88.5 109 L 89 106 L 80.5 106 L 80.5 105 Z " /><path fill="rgb(27,149,69)" stroke="rgb(27,149,69)" stroke-width="1" opacity="1" d="M 98.5 105 L 151 105.5 L 98.5 106 L 98.5 105 Z " /><path fill="rgb(27,149,69)" stroke="rgb(27,149,69)" stroke-width="1" opacity="1" d="M 160.5 105 L 169 105.5 L 160.5 106 L 159.5 107 L 160.5 105 Z " /><path fill="rgb(27,149,69)" stroke="rgb(27,149,69)" stroke-width="1" opacity="1" d="M 178.5 105 L 232 105.5 L 178.5 106 L 177.5 107 L 178.5 105 Z " /><path fill="rgb(27,149,69)" stroke="rgb(27,149,69)" stroke-width="1" opacity="1" d="M 241.5 105 L 249.5 105 L 251 106.5 L 249.5 106 L 241.5 106 L 241.5 105 Z " /><path fill="rgb(27,149,69)" stroke="rgb(27,149,69)" stroke-width="1" opacity="1" d="M 259.5 105 L 312.5 105 L 314 106.5 L 312.5 110 L 258.5 110 L 257 108.5 L 257.5 106 L 258 109 L 312.5 109 L 313 106 L 259.5 106 L 259.5 105 Z " /><path fill="rgb(27,149,69)" stroke="rgb(27,149,69)" stroke-width="1" opacity="1" d="M 322.5 105 L 330 105.5 L 322.5 106 L 322.5 105 Z " /><path fill="rgb(27,149,69)" stroke="rgb(27,149,69)" stroke-width="1" opacity="1" d="M 339.5 105 L 393 105.5 L 339 106 L 339.5 109 L 394 109 L 394.5 107 L 395 108.5 L 393.5 110 L 338 110 Q 337 106.2 339.5 105 Z " /><path fill="rgb(27,149,69)" stroke="rgb(27,149,69)" stroke-width="1" opacity="1" d="M 402.5 105 L 410.5 105 L 412 106.5 L 410.5 106 L 402.5 106 L 401.5 107 L 402.5 105 Z " /><path fill="rgb(27,149,69)" stroke="rgb(27,149,69)" stroke-width="1" opacity="1" d="M 96.5 106 L 97 109 L 151.5 109 L 152 106.5 L 153 106.5 L 151.5 110 L 97.5 110 L 96 108.5 L 96.5 106 Z " /><path fill="rgb(27,149,69)" stroke="rgb(27,149,69)" stroke-width="1" opacity="1" d="M 320.5 106 L 321 109 L 330.5 109 L 331 106.5 L 332 106.5 L 330.5 110 L 321.5 110 L 320 108.5 L 320.5 106 Z " /><path fill="rgb(27,149,69)" stroke="rgb(27,149,69)" stroke-width="1" opacity="1" d="M 71.5 108 L 72 110 L 16 109.5 L 70.5 109 L 71.5 108 Z " /><path fill="rgb(27,149,69)" stroke="rgb(27,149,69)" stroke-width="1" opacity="1" d="M 159.5 108 L 160.5 109 L 170 109.5 L 159 110 L 159.5 108 Z " /><path fill="rgb(27,149,69)" stroke="rgb(27,149,69)" stroke-width="1" opacity="1" d="M 250.5 108 L 251 110 L 240 109.5 L 249.5 109 L 250.5 108 Z " /><path fill="rgb(27,149,69)" stroke="rgb(27,149,69)" stroke-width="1" opacity="1" d="M 401.5 108 L 402.5 109 L 412 109.5 L 401 110 L 401.5 108 Z " /><path fill="rgb(27,149,69)" stroke="rgb(27,149,69)" stroke-width="1" opacity="1" d="M 177.5 109 L 233 109.5 L 177.5 110 L 177.5 109 Z " /></svg>